<mxfile host="app.diagrams.net" modified="2022-02-20T09:29:29.637Z" agent="5.0 (Windows)" etag="9b3_EpiqWgTxYv7l7z23" version="16.6.1" type="github" pages="4">
  <diagram id="NNKxEHsF1nf1VZCkoCeh" name="Strona-1">
    <mxGraphModel dx="1206" dy="1921" grid="1" gridSize="10" guides="1" tooltips="1" connect="1" arrows="1" fold="1" page="1" pageScale="1" pageWidth="827" pageHeight="1169" math="0" shadow="0">
      <root>
        <mxCell id="0" />
        <mxCell id="1" parent="0" />
        <mxCell id="-VEyq9d2pUVRHCdHRwyV-1" value="&lt;font face=&quot;arial&quot;&gt;&lt;span style=&quot;font-size: 14px&quot;&gt;Detail production / Produkcja szczegółowa&lt;/span&gt;&lt;/font&gt;" style="rounded=0;whiteSpace=wrap;html=1;sketch=0;fillColor=#d5e8d4;strokeColor=#82b366;align=center;" parent="1" vertex="1">
          <mxGeometry x="40" y="-1130" width="260" height="40" as="geometry" />
        </mxCell>
        <mxCell id="-VEyq9d2pUVRHCdHRwyV-3" value="&lt;span style=&quot;font-family: &amp;#34;arial&amp;#34;&quot;&gt;Generic production / Produkcja generyczna&lt;/span&gt;" style="rounded=0;whiteSpace=wrap;html=1;sketch=0;align=center;fontSize=14;" parent="1" vertex="1">
          <mxGeometry x="40" y="-1010" width="260" height="40" as="geometry" />
        </mxCell>
        <mxCell id="-VEyq9d2pUVRHCdHRwyV-4" value="(Elementy wykorzystane w produkcji)" style="rounded=0;whiteSpace=wrap;html=1;sketch=0;align=center;fontSize=14;fillColor=#d5e8d4;strokeColor=#82b366;" parent="1" vertex="1">
          <mxGeometry x="40" y="-970" width="260" height="20" as="geometry" />
        </mxCell>
        <mxCell id="-VEyq9d2pUVRHCdHRwyV-6" value="" style="rounded=0;whiteSpace=wrap;html=1;fillColor=#fff2cc;fontFamily=Helvetica;fontSize=14;strokeColor=none;" parent="1" vertex="1">
          <mxGeometry x="40" y="-220" width="280" height="116" as="geometry" />
        </mxCell>
        <mxCell id="-VEyq9d2pUVRHCdHRwyV-7" value="&lt;font style=&quot;font-size: 14px&quot;&gt;(Fakt z innej misji mogący wpłynąć na akcje bieżącej, nr questu)&lt;/font&gt;" style="rounded=0;whiteSpace=wrap;html=1;strokeColor=#9673a6;fillColor=#e1d5e7;" parent="1" vertex="1">
          <mxGeometry x="40" y="-690" width="260" height="40" as="geometry" />
        </mxCell>
        <mxCell id="-VEyq9d2pUVRHCdHRwyV-8" style="rounded=0;orthogonalLoop=1;jettySize=auto;html=1;fontSize=14;" parent="1" target="-VEyq9d2pUVRHCdHRwyV-9" edge="1">
          <mxGeometry relative="1" as="geometry">
            <mxPoint x="70" y="-410" as="sourcePoint" />
          </mxGeometry>
        </mxCell>
        <mxCell id="-VEyq9d2pUVRHCdHRwyV-9" value="" style="ellipse;whiteSpace=wrap;html=1;aspect=fixed;fontSize=14;align=center;fillColor=#000000;" parent="1" vertex="1">
          <mxGeometry x="50" y="-370.24" width="40" height="40" as="geometry" />
        </mxCell>
        <mxCell id="-VEyq9d2pUVRHCdHRwyV-10" style="rounded=0;orthogonalLoop=1;jettySize=auto;html=1;fontSize=14;" parent="1" target="-VEyq9d2pUVRHCdHRwyV-11" edge="1">
          <mxGeometry relative="1" as="geometry">
            <mxPoint x="140" y="-410" as="sourcePoint" />
          </mxGeometry>
        </mxCell>
        <mxCell id="-VEyq9d2pUVRHCdHRwyV-11" value="" style="ellipse;whiteSpace=wrap;html=1;aspect=fixed;fontSize=14;align=center;fillColor=none;" parent="1" vertex="1">
          <mxGeometry x="120" y="-370.24" width="40" height="40" as="geometry" />
        </mxCell>
        <mxCell id="-VEyq9d2pUVRHCdHRwyV-12" value="" style="ellipse;whiteSpace=wrap;html=1;aspect=fixed;fontSize=14;align=center;fillColor=#fff2cc;strokeWidth=1;" parent="1" vertex="1">
          <mxGeometry x="190" y="-370.24" width="40" height="40" as="geometry" />
        </mxCell>
        <mxCell id="-VEyq9d2pUVRHCdHRwyV-13" value="" style="endArrow=classic;html=1;fontFamily=Helvetica;fontSize=14;exitX=0.5;exitY=1;exitDx=0;exitDy=0;entryX=0.5;entryY=0;entryDx=0;entryDy=0;strokeWidth=1;" parent="1" target="-VEyq9d2pUVRHCdHRwyV-12" edge="1">
          <mxGeometry width="50" height="50" relative="1" as="geometry">
            <mxPoint x="210" y="-409.24" as="sourcePoint" />
            <mxPoint x="160" y="-539.24" as="targetPoint" />
          </mxGeometry>
        </mxCell>
        <mxCell id="-VEyq9d2pUVRHCdHRwyV-14" value="" style="rounded=0;whiteSpace=wrap;html=1;strokeColor=#000000;fontFamily=Helvetica;fontSize=14;fillColor=none;" parent="1" vertex="1">
          <mxGeometry x="40" y="-860" width="560" height="80" as="geometry" />
        </mxCell>
        <mxCell id="-VEyq9d2pUVRHCdHRwyV-15" value="&lt;font&gt;Fight ending with character’s escape / Walka zakończona ucieczką uczestnika&lt;br style=&quot;font-size: 14px&quot;&gt;&lt;/font&gt;" style="rounded=0;whiteSpace=wrap;html=1;fontSize=14;fontFamily=Helvetica;" parent="1" vertex="1">
          <mxGeometry x="327" y="-850" width="260" height="40" as="geometry" />
        </mxCell>
        <mxCell id="-VEyq9d2pUVRHCdHRwyV-16" value="&lt;font&gt;Fight ending with character’s death / Walka zakończona śmiercią uczestnika&lt;br style=&quot;font-size: 14px&quot;&gt;&lt;/font&gt;" style="rounded=0;whiteSpace=wrap;html=1;fontSize=14;fontFamily=Helvetica;" parent="1" vertex="1">
          <mxGeometry x="50" y="-850" width="260" height="40" as="geometry" />
        </mxCell>
        <mxCell id="-VEyq9d2pUVRHCdHRwyV-17" value="&lt;span style=&quot;font-family: &amp;#34;arial&amp;#34;&quot;&gt;(&lt;/span&gt;&lt;span style=&quot;font-family: &amp;#34;arial&amp;#34;&quot;&gt;&lt;b&gt;Main_hero&lt;/b&gt;,&amp;nbsp;&lt;/span&gt;&lt;span style=&quot;font-family: &amp;#34;arial&amp;#34;&quot;&gt;Wizard)&lt;/span&gt;" style="rounded=0;whiteSpace=wrap;html=1;sketch=0;fillColor=#d5e8d4;strokeColor=#82b366;align=center;fontSize=14;fontFamily=Helvetica;" parent="1" vertex="1">
          <mxGeometry x="50" y="-810" width="260" height="20" as="geometry" />
        </mxCell>
        <mxCell id="-VEyq9d2pUVRHCdHRwyV-18" style="rounded=0;orthogonalLoop=1;jettySize=auto;html=1;exitX=0.75;exitY=1;exitDx=0;exitDy=0;fontSize=14;" parent="1" source="-VEyq9d2pUVRHCdHRwyV-16" target="-VEyq9d2pUVRHCdHRwyV-17" edge="1">
          <mxGeometry relative="1" as="geometry">
            <mxPoint x="505" y="-809" as="sourcePoint" />
            <mxPoint x="528.6894328889757" y="-775.4945770369104" as="targetPoint" />
          </mxGeometry>
        </mxCell>
        <mxCell id="-VEyq9d2pUVRHCdHRwyV-19" value="&lt;span style=&quot;font-family: &amp;#34;arial&amp;#34;&quot;&gt;(&lt;/span&gt;&lt;span style=&quot;font-family: &amp;#34;arial&amp;#34;&quot;&gt;&lt;b&gt;Main_hero&lt;/b&gt;,&amp;nbsp;&lt;/span&gt;&lt;span style=&quot;font-family: &amp;#34;arial&amp;#34;&quot;&gt;Wizard)&lt;/span&gt;" style="rounded=0;whiteSpace=wrap;html=1;sketch=0;fillColor=#d5e8d4;strokeColor=#82b366;align=center;fontSize=14;fontFamily=Helvetica;" parent="1" vertex="1">
          <mxGeometry x="327" y="-810" width="260" height="20" as="geometry" />
        </mxCell>
        <mxCell id="-VEyq9d2pUVRHCdHRwyV-20" style="rounded=0;orthogonalLoop=1;jettySize=auto;html=1;fontSize=14;" parent="1" source="-VEyq9d2pUVRHCdHRwyV-15" target="-VEyq9d2pUVRHCdHRwyV-19" edge="1">
          <mxGeometry relative="1" as="geometry">
            <mxPoint x="746.666666666667" y="-809" as="sourcePoint" />
            <mxPoint x="783.9999999999172" y="-781.0000000000628" as="targetPoint" />
          </mxGeometry>
        </mxCell>
        <mxCell id="-VEyq9d2pUVRHCdHRwyV-22" value="Produkcja szczegółowa" style="text;html=1;strokeColor=none;fillColor=none;align=left;verticalAlign=top;whiteSpace=wrap;rounded=0;fontSize=18;" parent="1" vertex="1">
          <mxGeometry y="-1169" width="360" height="39" as="geometry" />
        </mxCell>
        <mxCell id="-VEyq9d2pUVRHCdHRwyV-23" value="Produkcja generyczna wykorzystana dla zestawu konkretnych elementów" style="text;html=1;strokeColor=none;fillColor=none;align=left;verticalAlign=top;whiteSpace=wrap;rounded=0;fontSize=18;" parent="1" vertex="1">
          <mxGeometry y="-1050" width="640" height="40" as="geometry" />
        </mxCell>
        <mxCell id="-VEyq9d2pUVRHCdHRwyV-25" value="Produkcje alternatywne w danych okolicznościach (mają identyczne lewe strony)" style="text;html=1;strokeColor=none;fillColor=none;align=left;verticalAlign=top;whiteSpace=wrap;rounded=0;fontSize=18;" parent="1" vertex="1">
          <mxGeometry y="-900" width="680" height="50" as="geometry" />
        </mxCell>
        <mxCell id="-VEyq9d2pUVRHCdHRwyV-28" value="" style="endArrow=classic;html=1;fontSize=18;" parent="1" edge="1">
          <mxGeometry width="50" height="50" relative="1" as="geometry">
            <mxPoint x="60" y="-550" as="sourcePoint" />
            <mxPoint x="60" y="-510" as="targetPoint" />
          </mxGeometry>
        </mxCell>
        <mxCell id="-VEyq9d2pUVRHCdHRwyV-29" value="Produkcje z innych misji mogące wpłynąć na decyzje gracza, np. zmienić jego stan posiadania" style="text;html=1;strokeColor=none;fillColor=none;align=left;verticalAlign=top;whiteSpace=wrap;rounded=0;fontSize=18;" parent="1" vertex="1">
          <mxGeometry y="-740" width="800" height="50" as="geometry" />
        </mxCell>
        <mxCell id="-VEyq9d2pUVRHCdHRwyV-30" value="Następstwo produkcji" style="text;html=1;strokeColor=none;fillColor=none;align=left;verticalAlign=top;whiteSpace=wrap;rounded=0;fontSize=18;" parent="1" vertex="1">
          <mxGeometry y="-600" width="800" height="50" as="geometry" />
        </mxCell>
        <mxCell id="-VEyq9d2pUVRHCdHRwyV-31" value="Zakończenie misji: śmiercią, porażką, sukcesem" style="text;html=1;strokeColor=none;fillColor=none;align=left;verticalAlign=top;whiteSpace=wrap;rounded=0;fontSize=18;" parent="1" vertex="1">
          <mxGeometry y="-460" width="800" height="50" as="geometry" />
        </mxCell>
        <mxCell id="-VEyq9d2pUVRHCdHRwyV-32" value="Główny wątek misji" style="text;html=1;strokeColor=none;fillColor=none;align=left;verticalAlign=top;whiteSpace=wrap;rounded=0;fontSize=18;" parent="1" vertex="1">
          <mxGeometry y="-280" width="800" height="50" as="geometry" />
        </mxCell>
      </root>
    </mxGraphModel>
  </diagram>
  <diagram id="hlKmCUx0jeRgkOeyQE9K" name="Page-2">
    <mxGraphModel dx="2033" dy="3090" grid="1" gridSize="10" guides="1" tooltips="1" connect="1" arrows="1" fold="1" page="1" pageScale="1" pageWidth="827" pageHeight="1169" math="0" shadow="0">
      <root>
        <mxCell id="4ydIUJlu1f8cNaJQ19XU-0" />
        <mxCell id="4ydIUJlu1f8cNaJQ19XU-1" parent="4ydIUJlu1f8cNaJQ19XU-0" />
        <mxCell id="PE73_3Ts_tjEWeQEeASn-6" value="" style="edgeStyle=orthogonalEdgeStyle;rounded=0;orthogonalLoop=1;jettySize=auto;html=1;" parent="4ydIUJlu1f8cNaJQ19XU-1" source="1og8-F4DtBUtJFGee5V1-0" target="PE73_3Ts_tjEWeQEeASn-2" edge="1">
          <mxGeometry relative="1" as="geometry" />
        </mxCell>
        <mxCell id="1og8-F4DtBUtJFGee5V1-0" value="" style="rounded=0;whiteSpace=wrap;html=1;fillColor=#fff2cc;fontFamily=Helvetica;fontSize=14;strokeColor=none;" parent="4ydIUJlu1f8cNaJQ19XU-1" vertex="1">
          <mxGeometry x="270" y="-1150" width="280" height="980" as="geometry" />
        </mxCell>
        <mxCell id="5csQRsSga3RPpv81JTQx-0" value="&lt;div&gt;Getting Knowledge from conversation/&lt;/div&gt;&lt;div&gt;Rozmowa z pozyskaniem informacji&lt;/div&gt;" style="rounded=0;whiteSpace=wrap;html=1;sketch=0;align=center;fontSize=14;" parent="4ydIUJlu1f8cNaJQ19XU-1" vertex="1">
          <mxGeometry x="280" y="-1140" width="260" height="40" as="geometry" />
        </mxCell>
        <mxCell id="5csQRsSga3RPpv81JTQx-1" value="Fiddler" style="rounded=0;whiteSpace=wrap;html=1;sketch=0;align=center;fontSize=14;fillColor=#d5e8d4;strokeColor=#82b366;" parent="4ydIUJlu1f8cNaJQ19XU-1" vertex="1">
          <mxGeometry x="280" y="-1100" width="260" height="20" as="geometry" />
        </mxCell>
        <mxCell id="qiQflo4pYE3LDmaiVEcy-19" style="edgeStyle=orthogonalEdgeStyle;rounded=0;orthogonalLoop=1;jettySize=auto;html=1;entryX=0.75;entryY=0;entryDx=0;entryDy=0;exitX=0.5;exitY=1;exitDx=0;exitDy=0;" parent="4ydIUJlu1f8cNaJQ19XU-1" source="5csQRsSga3RPpv81JTQx-3" target="PE73_3Ts_tjEWeQEeASn-8" edge="1">
          <mxGeometry relative="1" as="geometry" />
        </mxCell>
        <mxCell id="5csQRsSga3RPpv81JTQx-2" value="&lt;div&gt;Getting Knowledge from conversation/&lt;/div&gt;&lt;div&gt;Rozmowa z pozyskaniem informacji&lt;/div&gt;" style="rounded=0;whiteSpace=wrap;html=1;sketch=0;align=center;fontSize=14;" parent="4ydIUJlu1f8cNaJQ19XU-1" vertex="1">
          <mxGeometry x="280" y="-1050" width="260" height="40" as="geometry" />
        </mxCell>
        <mxCell id="5csQRsSga3RPpv81JTQx-3" value="Merchant" style="rounded=0;whiteSpace=wrap;html=1;sketch=0;align=center;fontSize=14;fillColor=#d5e8d4;strokeColor=#82b366;" parent="4ydIUJlu1f8cNaJQ19XU-1" vertex="1">
          <mxGeometry x="280" y="-1010" width="260" height="20" as="geometry" />
        </mxCell>
        <mxCell id="-5QWkakippZQdPgPk5Tg-0" value="&lt;div&gt;Fight ending with character`s death/&lt;/div&gt;&lt;div&gt;Walka zakończona śmiercią uczestnika&lt;br&gt;&lt;/div&gt;" style="rounded=0;whiteSpace=wrap;html=1;sketch=0;align=center;fontSize=14;" parent="4ydIUJlu1f8cNaJQ19XU-1" vertex="1">
          <mxGeometry y="-950" width="260" height="40" as="geometry" />
        </mxCell>
        <mxCell id="-5QWkakippZQdPgPk5Tg-1" value="&lt;b&gt;Hero&lt;/b&gt;, rat" style="rounded=0;whiteSpace=wrap;html=1;sketch=0;align=center;fontSize=14;fillColor=#d5e8d4;strokeColor=#82b366;" parent="4ydIUJlu1f8cNaJQ19XU-1" vertex="1">
          <mxGeometry y="-910" width="260" height="20" as="geometry" />
        </mxCell>
        <mxCell id="Il7KNT-vVZrzCOFxc4uF-0" value="&lt;font style=&quot;font-size: 14px&quot;&gt;Próba zdobycia wlosia od konia&lt;/font&gt;" style="rounded=0;whiteSpace=wrap;html=1;sketch=0;fillColor=#d5e8d4;strokeColor=#82b366;align=center;" parent="4ydIUJlu1f8cNaJQ19XU-1" vertex="1">
          <mxGeometry x="280" y="-830" width="260" height="40" as="geometry" />
        </mxCell>
        <mxCell id="NlzW6_0RjC2Be68YugG7-2" value="&lt;div&gt;Exchanging item for item/&lt;/div&gt;&lt;div&gt;Wymiana przedmiotu na przedmiot&lt;/div&gt;" style="rounded=0;whiteSpace=wrap;html=1;sketch=0;align=center;fontSize=14;" parent="4ydIUJlu1f8cNaJQ19XU-1" vertex="1">
          <mxGeometry x="280" y="-624" width="260" height="40" as="geometry" />
        </mxCell>
        <mxCell id="NlzW6_0RjC2Be68YugG7-3" value="Hero, Fiddler, Fiddlestick, keys" style="rounded=0;whiteSpace=wrap;html=1;sketch=0;align=center;fontSize=14;fillColor=#d5e8d4;strokeColor=#82b366;" parent="4ydIUJlu1f8cNaJQ19XU-1" vertex="1">
          <mxGeometry x="280" y="-584" width="260" height="20" as="geometry" />
        </mxCell>
        <mxCell id="ezdRhEm3_ycq8TzHO0MB-0" value="" style="ellipse;whiteSpace=wrap;html=1;aspect=fixed;fontSize=14;align=center;fillColor=#fff2cc;strokeWidth=1;" parent="4ydIUJlu1f8cNaJQ19XU-1" vertex="1">
          <mxGeometry x="390" y="-140" width="40" height="40" as="geometry" />
        </mxCell>
        <mxCell id="ezdRhEm3_ycq8TzHO0MB-2" value="" style="endArrow=classic;html=1;rounded=0;exitX=0;exitY=0.75;exitDx=0;exitDy=0;entryX=1;entryY=0.5;entryDx=0;entryDy=0;" parent="4ydIUJlu1f8cNaJQ19XU-1" source="VK5FQ5we-6nmiID9d6v9-3" target="qiQflo4pYE3LDmaiVEcy-10" edge="1">
          <mxGeometry width="50" height="50" relative="1" as="geometry">
            <mxPoint x="133" y="-230.00000000000023" as="sourcePoint" />
            <mxPoint x="133" y="-200.00000000000023" as="targetPoint" />
          </mxGeometry>
        </mxCell>
        <mxCell id="ezdRhEm3_ycq8TzHO0MB-5" value="&lt;div&gt;Fight ending with character`s death/&lt;/div&gt;&lt;div&gt;Walka zakończona śmiercią uczestnika&lt;br&gt;&lt;/div&gt;" style="rounded=0;whiteSpace=wrap;html=1;sketch=0;align=center;fontSize=14;" parent="4ydIUJlu1f8cNaJQ19XU-1" vertex="1">
          <mxGeometry x="280" y="-950" width="260" height="40" as="geometry" />
        </mxCell>
        <mxCell id="ezdRhEm3_ycq8TzHO0MB-6" value="Hero, &lt;b&gt;rat&lt;/b&gt;" style="rounded=0;whiteSpace=wrap;html=1;sketch=0;align=center;fontSize=14;fillColor=#d5e8d4;strokeColor=#82b366;" parent="4ydIUJlu1f8cNaJQ19XU-1" vertex="1">
          <mxGeometry x="280" y="-910" width="260" height="20" as="geometry" />
        </mxCell>
        <mxCell id="ezdRhEm3_ycq8TzHO0MB-7" value="&lt;font style=&quot;font-size: 14px&quot;&gt;Próba zdobycia wlosia od konia&lt;/font&gt;" style="rounded=0;whiteSpace=wrap;html=1;sketch=0;fillColor=#d5e8d4;strokeColor=#82b366;align=center;" parent="4ydIUJlu1f8cNaJQ19XU-1" vertex="1">
          <mxGeometry y="-830" width="260" height="40" as="geometry" />
        </mxCell>
        <mxCell id="qiQflo4pYE3LDmaiVEcy-0" value="" style="ellipse;whiteSpace=wrap;html=1;aspect=fixed;fontSize=14;align=center;fillColor=#000000;" parent="4ydIUJlu1f8cNaJQ19XU-1" vertex="1">
          <mxGeometry x="-100" y="-830" width="40" height="40" as="geometry" />
        </mxCell>
        <mxCell id="qiQflo4pYE3LDmaiVEcy-1" value="" style="ellipse;whiteSpace=wrap;html=1;aspect=fixed;fontSize=14;align=center;fillColor=#000000;" parent="4ydIUJlu1f8cNaJQ19XU-1" vertex="1">
          <mxGeometry x="-100" y="-940" width="40" height="40" as="geometry" />
        </mxCell>
        <mxCell id="qiQflo4pYE3LDmaiVEcy-4" value="" style="endArrow=classic;html=1;rounded=0;entryX=1;entryY=0.5;entryDx=0;entryDy=0;exitX=0;exitY=0.5;exitDx=0;exitDy=0;" parent="4ydIUJlu1f8cNaJQ19XU-1" source="ezdRhEm3_ycq8TzHO0MB-7" target="qiQflo4pYE3LDmaiVEcy-0" edge="1">
          <mxGeometry width="50" height="50" relative="1" as="geometry">
            <mxPoint x="-20" y="-800" as="sourcePoint" />
            <mxPoint x="310" y="-830" as="targetPoint" />
          </mxGeometry>
        </mxCell>
        <mxCell id="qiQflo4pYE3LDmaiVEcy-6" value="Fight ending with character’s death / Walka zakończona śmiercią uczestnika" style="rounded=0;whiteSpace=wrap;html=1;sketch=0;align=center;fontSize=14;" parent="4ydIUJlu1f8cNaJQ19XU-1" vertex="1">
          <mxGeometry x="280" y="-330" width="260" height="40" as="geometry" />
        </mxCell>
        <mxCell id="qiQflo4pYE3LDmaiVEcy-7" value="Hero, &lt;b&gt;Fiddler&lt;/b&gt;" style="rounded=0;whiteSpace=wrap;html=1;sketch=0;align=center;fontSize=14;fillColor=#d5e8d4;strokeColor=#82b366;" parent="4ydIUJlu1f8cNaJQ19XU-1" vertex="1">
          <mxGeometry x="280" y="-290" width="260" height="20" as="geometry" />
        </mxCell>
        <mxCell id="qiQflo4pYE3LDmaiVEcy-10" value="" style="ellipse;whiteSpace=wrap;html=1;aspect=fixed;fontSize=14;align=center;fillColor=#000000;" parent="4ydIUJlu1f8cNaJQ19XU-1" vertex="1">
          <mxGeometry x="-90" y="-320" width="40" height="40" as="geometry" />
        </mxCell>
        <mxCell id="qiQflo4pYE3LDmaiVEcy-15" style="edgeStyle=orthogonalEdgeStyle;rounded=0;orthogonalLoop=1;jettySize=auto;html=1;" parent="4ydIUJlu1f8cNaJQ19XU-1" source="qiQflo4pYE3LDmaiVEcy-14" target="ezdRhEm3_ycq8TzHO0MB-0" edge="1">
          <mxGeometry relative="1" as="geometry" />
        </mxCell>
        <mxCell id="qiQflo4pYE3LDmaiVEcy-14" value="&lt;font style=&quot;font-size: 14px&quot;&gt;Powrót córek, handlarze zawieszają strajk&lt;br&gt;&lt;/font&gt;" style="rounded=0;whiteSpace=wrap;html=1;sketch=0;fillColor=#d5e8d4;strokeColor=#82b366;align=center;" parent="4ydIUJlu1f8cNaJQ19XU-1" vertex="1">
          <mxGeometry x="280" y="-220" width="260" height="40" as="geometry" />
        </mxCell>
        <mxCell id="qiQflo4pYE3LDmaiVEcy-17" value="Making a deal / Transakcja kupna-sprzedaży" style="rounded=0;whiteSpace=wrap;html=1;sketch=0;align=center;fontSize=14;" parent="4ydIUJlu1f8cNaJQ19XU-1" vertex="1">
          <mxGeometry x="600" y="-1180" width="260" height="40" as="geometry" />
        </mxCell>
        <mxCell id="qiQflo4pYE3LDmaiVEcy-20" style="edgeStyle=orthogonalEdgeStyle;rounded=0;orthogonalLoop=1;jettySize=auto;html=1;entryX=1;entryY=0.5;entryDx=0;entryDy=0;exitX=0.997;exitY=0.643;exitDx=0;exitDy=0;exitPerimeter=0;" parent="4ydIUJlu1f8cNaJQ19XU-1" source="qiQflo4pYE3LDmaiVEcy-17" target="NlzW6_0RjC2Be68YugG7-2" edge="1">
          <mxGeometry relative="1" as="geometry">
            <Array as="points">
              <mxPoint x="890" y="-1154" />
              <mxPoint x="890" y="-604" />
            </Array>
          </mxGeometry>
        </mxCell>
        <mxCell id="qiQflo4pYE3LDmaiVEcy-18" value="Merchant, Fiddlestick, 50 coins" style="rounded=0;whiteSpace=wrap;html=1;sketch=0;align=center;fontSize=14;fillColor=#d5e8d4;strokeColor=#82b366;" parent="4ydIUJlu1f8cNaJQ19XU-1" vertex="1">
          <mxGeometry x="600" y="-1140" width="260" height="20" as="geometry" />
        </mxCell>
        <mxCell id="qiQflo4pYE3LDmaiVEcy-21" value="Kupno smyczka po zaniżonej cenie w podzięce za pozbycie się szczurów" style="rounded=0;whiteSpace=wrap;html=1;sketch=0;align=center;fontSize=14;fillColor=#d5e8d4;strokeColor=#82b366;" parent="4ydIUJlu1f8cNaJQ19XU-1" vertex="1">
          <mxGeometry x="600" y="-950" width="260" height="40" as="geometry" />
        </mxCell>
        <mxCell id="qiQflo4pYE3LDmaiVEcy-27" style="edgeStyle=orthogonalEdgeStyle;rounded=0;orthogonalLoop=1;jettySize=auto;html=1;entryX=1;entryY=0.5;entryDx=0;entryDy=0;exitX=1;exitY=0.75;exitDx=0;exitDy=0;" parent="4ydIUJlu1f8cNaJQ19XU-1" source="qiQflo4pYE3LDmaiVEcy-21" target="NlzW6_0RjC2Be68YugG7-2" edge="1">
          <mxGeometry relative="1" as="geometry">
            <Array as="points">
              <mxPoint x="890" y="-920" />
              <mxPoint x="890" y="-604" />
            </Array>
          </mxGeometry>
        </mxCell>
        <mxCell id="qiQflo4pYE3LDmaiVEcy-22" value="Merchant, Fiddlestick, 25 coins" style="rounded=0;whiteSpace=wrap;html=1;sketch=0;align=center;fontSize=14;fillColor=#d5e8d4;strokeColor=#82b366;" parent="4ydIUJlu1f8cNaJQ19XU-1" vertex="1">
          <mxGeometry x="600" y="-910" width="260" height="20" as="geometry" />
        </mxCell>
        <mxCell id="PE73_3Ts_tjEWeQEeASn-0" value="Knowledge acquisition / Pozyskanie wiedzy fabularnej" style="rounded=0;whiteSpace=wrap;html=1;sketch=0;align=center;fontSize=14;fillColor=#e1d5e7;strokeColor=#9673a6;" parent="4ydIUJlu1f8cNaJQ19XU-1" vertex="1">
          <mxGeometry y="-1240" width="260" height="40" as="geometry" />
        </mxCell>
        <mxCell id="PE73_3Ts_tjEWeQEeASn-5" value="" style="edgeStyle=orthogonalEdgeStyle;rounded=0;orthogonalLoop=1;jettySize=auto;html=1;" parent="4ydIUJlu1f8cNaJQ19XU-1" source="PE73_3Ts_tjEWeQEeASn-1" edge="1">
          <mxGeometry relative="1" as="geometry">
            <mxPoint x="410" y="-1140" as="targetPoint" />
          </mxGeometry>
        </mxCell>
        <mxCell id="PE73_3Ts_tjEWeQEeASn-1" value="Inkeeper/Fiddler" style="rounded=0;whiteSpace=wrap;html=1;sketch=0;align=center;fontSize=14;fillColor=#e1d5e7;strokeColor=#9673a6;" parent="4ydIUJlu1f8cNaJQ19XU-1" vertex="1">
          <mxGeometry x="280" y="-1200" width="260" height="20" as="geometry" />
        </mxCell>
        <mxCell id="PE73_3Ts_tjEWeQEeASn-2" value="&lt;div&gt;Getting Knowledge from conversation/&lt;/div&gt;&lt;div&gt;Rozmowa z pozyskaniem informacji&lt;/div&gt;" style="rounded=0;whiteSpace=wrap;html=1;sketch=0;align=center;fontSize=14;fillColor=#e1d5e7;strokeColor=#9673a6;" parent="4ydIUJlu1f8cNaJQ19XU-1" vertex="1">
          <mxGeometry x="280" y="-1240" width="260" height="40" as="geometry" />
        </mxCell>
        <mxCell id="PE73_3Ts_tjEWeQEeASn-4" style="edgeStyle=orthogonalEdgeStyle;rounded=0;orthogonalLoop=1;jettySize=auto;html=1;entryX=0.5;entryY=0;entryDx=0;entryDy=0;exitX=0.5;exitY=1;exitDx=0;exitDy=0;" parent="4ydIUJlu1f8cNaJQ19XU-1" source="PE73_3Ts_tjEWeQEeASn-7" target="5csQRsSga3RPpv81JTQx-0" edge="1">
          <mxGeometry relative="1" as="geometry">
            <mxPoint x="110" y="-1190" as="sourcePoint" />
            <mxPoint x="410" y="-1150" as="targetPoint" />
            <Array as="points">
              <mxPoint x="130" y="-1160" />
              <mxPoint x="410" y="-1160" />
            </Array>
          </mxGeometry>
        </mxCell>
        <mxCell id="PE73_3Ts_tjEWeQEeASn-7" value="Road" style="rounded=0;whiteSpace=wrap;html=1;sketch=0;align=center;fontSize=14;fillColor=#e1d5e7;strokeColor=#9673a6;" parent="4ydIUJlu1f8cNaJQ19XU-1" vertex="1">
          <mxGeometry y="-1200" width="260" height="20" as="geometry" />
        </mxCell>
        <mxCell id="PE73_3Ts_tjEWeQEeASn-8" value="" style="rounded=0;whiteSpace=wrap;html=1;sketch=0;align=center;fontSize=14;fillColor=none;" parent="4ydIUJlu1f8cNaJQ19XU-1" vertex="1">
          <mxGeometry x="-10" y="-960" width="560" height="80" as="geometry" />
        </mxCell>
        <mxCell id="PE73_3Ts_tjEWeQEeASn-9" value="" style="edgeStyle=orthogonalEdgeStyle;rounded=0;orthogonalLoop=1;jettySize=auto;html=1;exitX=0.018;exitY=0.5;exitDx=0;exitDy=0;exitPerimeter=0;entryX=1;entryY=0.5;entryDx=0;entryDy=0;" parent="4ydIUJlu1f8cNaJQ19XU-1" source="PE73_3Ts_tjEWeQEeASn-8" target="qiQflo4pYE3LDmaiVEcy-1" edge="1">
          <mxGeometry relative="1" as="geometry">
            <mxPoint x="129.82999999999998" y="-889.9999999999998" as="sourcePoint" />
            <mxPoint x="129.82999999999998" y="-849.9999999999998" as="targetPoint" />
          </mxGeometry>
        </mxCell>
        <mxCell id="PE73_3Ts_tjEWeQEeASn-10" value="" style="rounded=0;whiteSpace=wrap;html=1;sketch=0;align=center;fontSize=14;fillColor=none;" parent="4ydIUJlu1f8cNaJQ19XU-1" vertex="1">
          <mxGeometry x="-10" y="-840" width="560" height="80" as="geometry" />
        </mxCell>
        <mxCell id="PE73_3Ts_tjEWeQEeASn-11" value="" style="edgeStyle=orthogonalEdgeStyle;rounded=0;orthogonalLoop=1;jettySize=auto;html=1;entryX=0;entryY=0.5;entryDx=0;entryDy=0;exitX=0.5;exitY=1;exitDx=0;exitDy=0;" parent="4ydIUJlu1f8cNaJQ19XU-1" source="PE73_3Ts_tjEWeQEeASn-1" target="qiQflo4pYE3LDmaiVEcy-17" edge="1">
          <mxGeometry relative="1" as="geometry">
            <mxPoint x="420" y="-1170" as="sourcePoint" />
            <mxPoint x="420" y="-1130" as="targetPoint" />
            <Array as="points">
              <mxPoint x="410" y="-1160" />
            </Array>
          </mxGeometry>
        </mxCell>
        <mxCell id="PE73_3Ts_tjEWeQEeASn-13" style="edgeStyle=orthogonalEdgeStyle;rounded=0;orthogonalLoop=1;jettySize=auto;html=1;exitX=0.5;exitY=1;exitDx=0;exitDy=0;" parent="4ydIUJlu1f8cNaJQ19XU-1" source="5csQRsSga3RPpv81JTQx-1" edge="1">
          <mxGeometry relative="1" as="geometry">
            <mxPoint x="420" y="-980" as="sourcePoint" />
            <mxPoint x="410" y="-1050" as="targetPoint" />
          </mxGeometry>
        </mxCell>
        <mxCell id="PE73_3Ts_tjEWeQEeASn-15" style="edgeStyle=orthogonalEdgeStyle;rounded=0;orthogonalLoop=1;jettySize=auto;html=1;entryX=0;entryY=0.75;entryDx=0;entryDy=0;exitX=1;exitY=0.75;exitDx=0;exitDy=0;" parent="4ydIUJlu1f8cNaJQ19XU-1" source="ezdRhEm3_ycq8TzHO0MB-5" target="qiQflo4pYE3LDmaiVEcy-21" edge="1">
          <mxGeometry relative="1" as="geometry">
            <mxPoint x="570" y="-900" as="sourcePoint" />
            <mxPoint x="420" y="-960" as="targetPoint" />
          </mxGeometry>
        </mxCell>
        <mxCell id="PE73_3Ts_tjEWeQEeASn-17" value="Kupno smyczka po zaniżonej cenie w zamian za dostarczenie materiału końskiego włosia" style="rounded=0;whiteSpace=wrap;html=1;sketch=0;align=center;fontSize=14;fillColor=#d5e8d4;strokeColor=#82b366;" parent="4ydIUJlu1f8cNaJQ19XU-1" vertex="1">
          <mxGeometry x="600" y="-830" width="260" height="50" as="geometry" />
        </mxCell>
        <mxCell id="PE73_3Ts_tjEWeQEeASn-18" value="Merchant, Fiddlestick, 25 coins" style="rounded=0;whiteSpace=wrap;html=1;sketch=0;align=center;fontSize=14;fillColor=#d5e8d4;strokeColor=#82b366;" parent="4ydIUJlu1f8cNaJQ19XU-1" vertex="1">
          <mxGeometry x="600" y="-780" width="260" height="20" as="geometry" />
        </mxCell>
        <mxCell id="PE73_3Ts_tjEWeQEeASn-19" style="edgeStyle=orthogonalEdgeStyle;rounded=0;orthogonalLoop=1;jettySize=auto;html=1;entryX=0.75;entryY=0;entryDx=0;entryDy=0;exitX=0.75;exitY=1;exitDx=0;exitDy=0;" parent="4ydIUJlu1f8cNaJQ19XU-1" source="PE73_3Ts_tjEWeQEeASn-8" target="PE73_3Ts_tjEWeQEeASn-10" edge="1">
          <mxGeometry relative="1" as="geometry">
            <mxPoint x="420" y="-980" as="sourcePoint" />
            <mxPoint x="420" y="-950" as="targetPoint" />
          </mxGeometry>
        </mxCell>
        <mxCell id="PE73_3Ts_tjEWeQEeASn-20" style="edgeStyle=orthogonalEdgeStyle;rounded=0;orthogonalLoop=1;jettySize=auto;html=1;entryX=0.003;entryY=0.399;entryDx=0;entryDy=0;exitX=1;exitY=0.5;exitDx=0;exitDy=0;entryPerimeter=0;" parent="4ydIUJlu1f8cNaJQ19XU-1" source="Il7KNT-vVZrzCOFxc4uF-0" target="PE73_3Ts_tjEWeQEeASn-17" edge="1">
          <mxGeometry relative="1" as="geometry">
            <mxPoint x="560" y="-810" as="sourcePoint" />
            <mxPoint x="420" y="-829.9999999999998" as="targetPoint" />
          </mxGeometry>
        </mxCell>
        <mxCell id="PE73_3Ts_tjEWeQEeASn-21" value="Otrzymanie smyczka za darmo za wykonanie obu zadań" style="rounded=0;whiteSpace=wrap;html=1;sketch=0;align=center;fontSize=14;fillColor=#d5e8d4;strokeColor=#82b366;" parent="4ydIUJlu1f8cNaJQ19XU-1" vertex="1">
          <mxGeometry x="280" y="-730" width="260" height="50" as="geometry" />
        </mxCell>
        <mxCell id="PE73_3Ts_tjEWeQEeASn-22" value="Merchant, Fiddlestick" style="rounded=0;whiteSpace=wrap;html=1;sketch=0;align=center;fontSize=14;fillColor=#d5e8d4;strokeColor=#82b366;" parent="4ydIUJlu1f8cNaJQ19XU-1" vertex="1">
          <mxGeometry x="280" y="-680" width="260" height="20" as="geometry" />
        </mxCell>
        <mxCell id="PE73_3Ts_tjEWeQEeASn-23" style="edgeStyle=orthogonalEdgeStyle;rounded=0;orthogonalLoop=1;jettySize=auto;html=1;entryX=0.5;entryY=0;entryDx=0;entryDy=0;exitX=0.75;exitY=1;exitDx=0;exitDy=0;" parent="4ydIUJlu1f8cNaJQ19XU-1" source="PE73_3Ts_tjEWeQEeASn-10" target="PE73_3Ts_tjEWeQEeASn-21" edge="1">
          <mxGeometry relative="1" as="geometry">
            <mxPoint x="420" y="-869.9999999999998" as="sourcePoint" />
            <mxPoint x="420" y="-829.9999999999998" as="targetPoint" />
          </mxGeometry>
        </mxCell>
        <mxCell id="PE73_3Ts_tjEWeQEeASn-24" style="edgeStyle=orthogonalEdgeStyle;rounded=0;orthogonalLoop=1;jettySize=auto;html=1;entryX=0.5;entryY=0;entryDx=0;entryDy=0;exitX=0.5;exitY=1;exitDx=0;exitDy=0;" parent="4ydIUJlu1f8cNaJQ19XU-1" source="PE73_3Ts_tjEWeQEeASn-22" target="NlzW6_0RjC2Be68YugG7-2" edge="1">
          <mxGeometry relative="1" as="geometry">
            <mxPoint x="420" y="-770" as="sourcePoint" />
            <mxPoint x="420" y="-740" as="targetPoint" />
          </mxGeometry>
        </mxCell>
        <mxCell id="PE73_3Ts_tjEWeQEeASn-26" value="Hero&lt;b&gt;,&lt;/b&gt; horse" style="rounded=0;whiteSpace=wrap;html=1;sketch=0;align=center;fontSize=14;fillColor=#d5e8d4;strokeColor=#82b366;" parent="4ydIUJlu1f8cNaJQ19XU-1" vertex="1">
          <mxGeometry x="280" y="-790" width="260" height="20" as="geometry" />
        </mxCell>
        <mxCell id="PE73_3Ts_tjEWeQEeASn-27" value="&lt;b&gt;Hero&lt;/b&gt;, horse" style="rounded=0;whiteSpace=wrap;html=1;sketch=0;align=center;fontSize=14;fillColor=#d5e8d4;strokeColor=#82b366;" parent="4ydIUJlu1f8cNaJQ19XU-1" vertex="1">
          <mxGeometry y="-790" width="260" height="20" as="geometry" />
        </mxCell>
        <mxCell id="PE73_3Ts_tjEWeQEeASn-28" style="edgeStyle=orthogonalEdgeStyle;rounded=0;orthogonalLoop=1;jettySize=auto;html=1;entryX=0.25;entryY=0;entryDx=0;entryDy=0;exitX=0.5;exitY=1;exitDx=0;exitDy=0;" parent="4ydIUJlu1f8cNaJQ19XU-1" source="PE73_3Ts_tjEWeQEeASn-7" target="PE73_3Ts_tjEWeQEeASn-8" edge="1">
          <mxGeometry relative="1" as="geometry">
            <mxPoint x="115" y="-1180" as="sourcePoint" />
            <mxPoint x="420" y="-1130" as="targetPoint" />
            <Array as="points">
              <mxPoint x="130" y="-1170" />
              <mxPoint x="130" y="-1170" />
            </Array>
          </mxGeometry>
        </mxCell>
        <mxCell id="PE73_3Ts_tjEWeQEeASn-29" style="edgeStyle=orthogonalEdgeStyle;rounded=0;orthogonalLoop=1;jettySize=auto;html=1;entryX=0.75;entryY=0;entryDx=0;entryDy=0;exitX=1;exitY=0.75;exitDx=0;exitDy=0;" parent="4ydIUJlu1f8cNaJQ19XU-1" target="PE73_3Ts_tjEWeQEeASn-10" edge="1">
          <mxGeometry relative="1" as="geometry">
            <mxPoint x="540" y="-1030.1099999999997" as="sourcePoint" />
            <mxPoint x="600" y="-1030.1099999999997" as="targetPoint" />
            <Array as="points">
              <mxPoint x="570" y="-1030" />
              <mxPoint x="570" y="-860" />
              <mxPoint x="410" y="-860" />
            </Array>
          </mxGeometry>
        </mxCell>
        <mxCell id="PE73_3Ts_tjEWeQEeASn-30" style="edgeStyle=orthogonalEdgeStyle;rounded=0;orthogonalLoop=1;jettySize=auto;html=1;entryX=1;entryY=0.5;entryDx=0;entryDy=0;exitX=0.5;exitY=1;exitDx=0;exitDy=0;" parent="4ydIUJlu1f8cNaJQ19XU-1" source="PE73_3Ts_tjEWeQEeASn-18" target="NlzW6_0RjC2Be68YugG7-2" edge="1">
          <mxGeometry relative="1" as="geometry">
            <mxPoint x="600" y="-739.95" as="sourcePoint" />
            <mxPoint x="660.78" y="-740" as="targetPoint" />
          </mxGeometry>
        </mxCell>
        <mxCell id="PE73_3Ts_tjEWeQEeASn-32" value="&lt;div&gt;Getting Knowledge from conversation/&lt;/div&gt;&lt;div&gt;Rozmowa z pozyskaniem informacji&lt;/div&gt;" style="rounded=0;whiteSpace=wrap;html=1;sketch=0;align=center;fontSize=14;" parent="4ydIUJlu1f8cNaJQ19XU-1" vertex="1">
          <mxGeometry x="280" y="-490" width="260" height="40" as="geometry" />
        </mxCell>
        <mxCell id="PE73_3Ts_tjEWeQEeASn-33" style="edgeStyle=orthogonalEdgeStyle;rounded=0;orthogonalLoop=1;jettySize=auto;html=1;exitX=0.5;exitY=1;exitDx=0;exitDy=0;" parent="4ydIUJlu1f8cNaJQ19XU-1" edge="1">
          <mxGeometry relative="1" as="geometry">
            <mxPoint x="410" y="-524" as="sourcePoint" />
            <mxPoint x="410" y="-489" as="targetPoint" />
            <Array as="points">
              <mxPoint x="410" y="-489" />
            </Array>
          </mxGeometry>
        </mxCell>
        <mxCell id="VK5FQ5we-6nmiID9d6v9-0" value="Merchant" style="rounded=0;whiteSpace=wrap;html=1;sketch=0;align=center;fontSize=14;fillColor=#d5e8d4;strokeColor=#82b366;" parent="4ydIUJlu1f8cNaJQ19XU-1" vertex="1">
          <mxGeometry x="280" y="-450" width="260" height="20" as="geometry" />
        </mxCell>
        <mxCell id="VK5FQ5we-6nmiID9d6v9-1" value="&lt;font style=&quot;font-size: 14px&quot;&gt;Zniknięcie córek, skrzypek ucieka do lasu porywając córki, handlarze strajkują &lt;/font&gt;" style="rounded=0;whiteSpace=wrap;html=1;sketch=0;fillColor=#d5e8d4;strokeColor=#82b366;align=center;" parent="4ydIUJlu1f8cNaJQ19XU-1" vertex="1">
          <mxGeometry x="280" y="-564" width="260" height="40" as="geometry" />
        </mxCell>
        <mxCell id="VK5FQ5we-6nmiID9d6v9-2" value="&lt;font style=&quot;font-size: 14px&quot;&gt;Dowolny handlarz wyjaśnia, że skrzypek uciekł do lasu i dopóki bohater nie zrobi z nim porządku, to nic nie sprzeda&lt;br&gt;&lt;/font&gt;" style="rounded=0;whiteSpace=wrap;html=1;sketch=0;fillColor=#d5e8d4;strokeColor=#82b366;align=center;" parent="4ydIUJlu1f8cNaJQ19XU-1" vertex="1">
          <mxGeometry x="280" y="-430" width="260" height="60" as="geometry" />
        </mxCell>
        <mxCell id="VK5FQ5we-6nmiID9d6v9-3" value="Fight ending with character’s death / Walka zakończona śmiercią uczestnika" style="rounded=0;whiteSpace=wrap;html=1;sketch=0;align=center;fontSize=14;" parent="4ydIUJlu1f8cNaJQ19XU-1" vertex="1">
          <mxGeometry x="3" y="-330" width="260" height="40" as="geometry" />
        </mxCell>
        <mxCell id="VK5FQ5we-6nmiID9d6v9-4" value="&lt;b&gt;Hero&lt;/b&gt;, Fiddler" style="rounded=0;whiteSpace=wrap;html=1;sketch=0;align=center;fontSize=14;fillColor=#d5e8d4;strokeColor=#82b366;" parent="4ydIUJlu1f8cNaJQ19XU-1" vertex="1">
          <mxGeometry x="3" y="-290" width="260" height="20" as="geometry" />
        </mxCell>
        <mxCell id="VK5FQ5we-6nmiID9d6v9-5" style="edgeStyle=orthogonalEdgeStyle;rounded=0;orthogonalLoop=1;jettySize=auto;html=1;exitX=0.5;exitY=1;exitDx=0;exitDy=0;entryX=0.75;entryY=-0.016;entryDx=0;entryDy=0;entryPerimeter=0;" parent="4ydIUJlu1f8cNaJQ19XU-1" target="VK5FQ5we-6nmiID9d6v9-17" edge="1">
          <mxGeometry relative="1" as="geometry">
            <mxPoint x="409.88" y="-370" as="sourcePoint" />
            <mxPoint x="409.88" y="-335" as="targetPoint" />
            <Array as="points" />
          </mxGeometry>
        </mxCell>
        <mxCell id="VK5FQ5we-6nmiID9d6v9-8" value="&lt;div&gt;Getting Knowledge from conversation/&lt;/div&gt;&lt;div&gt;Rozmowa z pozyskaniem informacji&lt;/div&gt;" style="rounded=0;whiteSpace=wrap;html=1;sketch=0;align=center;fontSize=14;" parent="4ydIUJlu1f8cNaJQ19XU-1" vertex="1">
          <mxGeometry x="567" y="-490" width="260" height="40" as="geometry" />
        </mxCell>
        <mxCell id="VK5FQ5we-6nmiID9d6v9-9" value="Fiddler" style="rounded=0;whiteSpace=wrap;html=1;sketch=0;align=center;fontSize=14;fillColor=#d5e8d4;strokeColor=#82b366;" parent="4ydIUJlu1f8cNaJQ19XU-1" vertex="1">
          <mxGeometry x="567" y="-450" width="260" height="20" as="geometry" />
        </mxCell>
        <mxCell id="VK5FQ5we-6nmiID9d6v9-10" value="&lt;font style=&quot;font-size: 14px&quot;&gt;Skrzypek mówi, że nie podoba mu się zarabianie na życie muzyką, więc zaczarował córki i żąda okupu 100 monet&lt;br&gt;&lt;/font&gt;" style="rounded=0;whiteSpace=wrap;html=1;sketch=0;fillColor=#d5e8d4;strokeColor=#82b366;align=center;" parent="4ydIUJlu1f8cNaJQ19XU-1" vertex="1">
          <mxGeometry x="567" y="-430" width="260" height="60" as="geometry" />
        </mxCell>
        <mxCell id="VK5FQ5we-6nmiID9d6v9-11" style="edgeStyle=orthogonalEdgeStyle;rounded=0;orthogonalLoop=1;jettySize=auto;html=1;exitX=0.5;exitY=1;exitDx=0;exitDy=0;entryX=0.5;entryY=0;entryDx=0;entryDy=0;" parent="4ydIUJlu1f8cNaJQ19XU-1" source="VK5FQ5we-6nmiID9d6v9-1" target="VK5FQ5we-6nmiID9d6v9-8" edge="1">
          <mxGeometry relative="1" as="geometry">
            <mxPoint x="580" y="-530" as="sourcePoint" />
            <mxPoint x="580" y="-495" as="targetPoint" />
            <Array as="points">
              <mxPoint x="410" y="-510" />
              <mxPoint x="697" y="-510" />
            </Array>
          </mxGeometry>
        </mxCell>
        <mxCell id="VK5FQ5we-6nmiID9d6v9-12" value="Making a deal / Transakcja kupna-sprzedaży" style="rounded=0;whiteSpace=wrap;html=1;sketch=0;align=center;fontSize=14;" parent="4ydIUJlu1f8cNaJQ19XU-1" vertex="1">
          <mxGeometry x="567" y="-340" width="260" height="40" as="geometry" />
        </mxCell>
        <mxCell id="VK5FQ5we-6nmiID9d6v9-13" value="Fiddler, nothing, 100 coins" style="rounded=0;whiteSpace=wrap;html=1;sketch=0;align=center;fontSize=14;fillColor=#d5e8d4;strokeColor=#82b366;" parent="4ydIUJlu1f8cNaJQ19XU-1" vertex="1">
          <mxGeometry x="567" y="-300" width="260" height="20" as="geometry" />
        </mxCell>
        <mxCell id="VK5FQ5we-6nmiID9d6v9-14" style="edgeStyle=orthogonalEdgeStyle;rounded=0;orthogonalLoop=1;jettySize=auto;html=1;entryX=0.5;entryY=0;entryDx=0;entryDy=0;" parent="4ydIUJlu1f8cNaJQ19XU-1" target="VK5FQ5we-6nmiID9d6v9-12" edge="1">
          <mxGeometry relative="1" as="geometry">
            <mxPoint x="697" y="-370" as="sourcePoint" />
            <mxPoint x="987" y="-336" as="targetPoint" />
            <Array as="points">
              <mxPoint x="697" y="-370" />
            </Array>
          </mxGeometry>
        </mxCell>
        <mxCell id="VK5FQ5we-6nmiID9d6v9-15" style="edgeStyle=orthogonalEdgeStyle;rounded=0;orthogonalLoop=1;jettySize=auto;html=1;exitX=0.75;exitY=1;exitDx=0;exitDy=0;entryX=0.5;entryY=0;entryDx=0;entryDy=0;" parent="4ydIUJlu1f8cNaJQ19XU-1" source="VK5FQ5we-6nmiID9d6v9-17" target="qiQflo4pYE3LDmaiVEcy-14" edge="1">
          <mxGeometry relative="1" as="geometry">
            <mxPoint x="420" y="-170" as="sourcePoint" />
            <mxPoint x="420" y="-130" as="targetPoint" />
          </mxGeometry>
        </mxCell>
        <mxCell id="VK5FQ5we-6nmiID9d6v9-16" style="edgeStyle=orthogonalEdgeStyle;rounded=0;orthogonalLoop=1;jettySize=auto;html=1;exitX=0.5;exitY=1;exitDx=0;exitDy=0;entryX=0.5;entryY=0;entryDx=0;entryDy=0;startArrow=none;" parent="4ydIUJlu1f8cNaJQ19XU-1" source="VK5FQ5we-6nmiID9d6v9-18" target="qiQflo4pYE3LDmaiVEcy-14" edge="1">
          <mxGeometry relative="1" as="geometry">
            <mxPoint x="430" y="-160" as="sourcePoint" />
            <mxPoint x="430" y="-120" as="targetPoint" />
            <Array as="points">
              <mxPoint x="697" y="-240" />
              <mxPoint x="410" y="-240" />
            </Array>
          </mxGeometry>
        </mxCell>
        <mxCell id="VK5FQ5we-6nmiID9d6v9-17" value="" style="rounded=0;whiteSpace=wrap;html=1;sketch=0;align=center;fontSize=14;fillColor=none;" parent="4ydIUJlu1f8cNaJQ19XU-1" vertex="1">
          <mxGeometry x="-10" y="-340" width="560" height="80" as="geometry" />
        </mxCell>
        <mxCell id="VK5FQ5we-6nmiID9d6v9-18" value="&lt;font style=&quot;font-size: 14px&quot;&gt;Skrzypek wraca na pastwisko&lt;br&gt;&lt;/font&gt;" style="rounded=0;whiteSpace=wrap;html=1;sketch=0;fillColor=#d5e8d4;strokeColor=#82b366;align=center;" parent="4ydIUJlu1f8cNaJQ19XU-1" vertex="1">
          <mxGeometry x="567" y="-280" width="260" height="20" as="geometry" />
        </mxCell>
        <mxCell id="VK5FQ5we-6nmiID9d6v9-19" value="" style="edgeStyle=orthogonalEdgeStyle;rounded=0;orthogonalLoop=1;jettySize=auto;html=1;exitX=0.5;exitY=1;exitDx=0;exitDy=0;entryX=0.5;entryY=0;entryDx=0;entryDy=0;endArrow=none;" parent="4ydIUJlu1f8cNaJQ19XU-1" source="VK5FQ5we-6nmiID9d6v9-13" target="VK5FQ5we-6nmiID9d6v9-18" edge="1">
          <mxGeometry relative="1" as="geometry">
            <mxPoint x="697" y="-270" as="sourcePoint" />
            <mxPoint x="410" y="-220" as="targetPoint" />
          </mxGeometry>
        </mxCell>
      </root>
    </mxGraphModel>
  </diagram>
  <diagram name="Page-3" id="RHIxnD2PpwBOoqJxh1e8">
    <mxGraphModel dx="1832" dy="2965" grid="1" gridSize="10" guides="1" tooltips="1" connect="1" arrows="1" fold="1" page="1" pageScale="1" pageWidth="827" pageHeight="1169" math="0" shadow="0">
      <root>
        <mxCell id="YvVL6zBtYwET4k6TKZNd-0" />
        <mxCell id="YvVL6zBtYwET4k6TKZNd-1" parent="YvVL6zBtYwET4k6TKZNd-0" />
        <mxCell id="YvVL6zBtYwET4k6TKZNd-2" value="" style="edgeStyle=orthogonalEdgeStyle;rounded=0;orthogonalLoop=1;jettySize=auto;html=1;" edge="1" parent="YvVL6zBtYwET4k6TKZNd-1" source="YvVL6zBtYwET4k6TKZNd-3" target="YvVL6zBtYwET4k6TKZNd-36">
          <mxGeometry relative="1" as="geometry" />
        </mxCell>
        <mxCell id="YvVL6zBtYwET4k6TKZNd-3" value="" style="rounded=0;whiteSpace=wrap;html=1;fillColor=#fff2cc;fontFamily=Helvetica;fontSize=14;strokeColor=none;" vertex="1" parent="YvVL6zBtYwET4k6TKZNd-1">
          <mxGeometry x="270" y="-1150" width="280" height="980" as="geometry" />
        </mxCell>
        <mxCell id="YvVL6zBtYwET4k6TKZNd-4" value="&lt;div&gt;Getting Knowledge from conversation/&lt;/div&gt;&lt;div&gt;Rozmowa z pozyskaniem informacji&lt;/div&gt;" style="rounded=0;whiteSpace=wrap;html=1;sketch=0;align=center;fontSize=14;" vertex="1" parent="YvVL6zBtYwET4k6TKZNd-1">
          <mxGeometry x="280" y="-1140" width="260" height="40" as="geometry" />
        </mxCell>
        <mxCell id="YvVL6zBtYwET4k6TKZNd-5" value="Fiddler" style="rounded=0;whiteSpace=wrap;html=1;sketch=0;align=center;fontSize=14;fillColor=#d5e8d4;strokeColor=#82b366;" vertex="1" parent="YvVL6zBtYwET4k6TKZNd-1">
          <mxGeometry x="280" y="-1100" width="260" height="20" as="geometry" />
        </mxCell>
        <mxCell id="YvVL6zBtYwET4k6TKZNd-6" style="edgeStyle=orthogonalEdgeStyle;rounded=0;orthogonalLoop=1;jettySize=auto;html=1;entryX=0.75;entryY=0;entryDx=0;entryDy=0;exitX=0.5;exitY=1;exitDx=0;exitDy=0;" edge="1" parent="YvVL6zBtYwET4k6TKZNd-1" source="YvVL6zBtYwET4k6TKZNd-8" target="YvVL6zBtYwET4k6TKZNd-39">
          <mxGeometry relative="1" as="geometry" />
        </mxCell>
        <mxCell id="YvVL6zBtYwET4k6TKZNd-7" value="&lt;div&gt;Getting Knowledge from conversation/&lt;/div&gt;&lt;div&gt;Rozmowa z pozyskaniem informacji&lt;/div&gt;" style="rounded=0;whiteSpace=wrap;html=1;sketch=0;align=center;fontSize=14;" vertex="1" parent="YvVL6zBtYwET4k6TKZNd-1">
          <mxGeometry x="280" y="-1050" width="260" height="40" as="geometry" />
        </mxCell>
        <mxCell id="YvVL6zBtYwET4k6TKZNd-8" value="Merchant" style="rounded=0;whiteSpace=wrap;html=1;sketch=0;align=center;fontSize=14;fillColor=#d5e8d4;strokeColor=#82b366;" vertex="1" parent="YvVL6zBtYwET4k6TKZNd-1">
          <mxGeometry x="280" y="-1010" width="260" height="20" as="geometry" />
        </mxCell>
        <mxCell id="YvVL6zBtYwET4k6TKZNd-9" value="&lt;div&gt;Fight ending with character`s death/&lt;/div&gt;&lt;div&gt;Walka zakończona śmiercią uczestnika&lt;br&gt;&lt;/div&gt;" style="rounded=0;whiteSpace=wrap;html=1;sketch=0;align=center;fontSize=14;" vertex="1" parent="YvVL6zBtYwET4k6TKZNd-1">
          <mxGeometry y="-950" width="260" height="40" as="geometry" />
        </mxCell>
        <mxCell id="YvVL6zBtYwET4k6TKZNd-10" value="&lt;b&gt;Hero&lt;/b&gt;, rat" style="rounded=0;whiteSpace=wrap;html=1;sketch=0;align=center;fontSize=14;fillColor=#d5e8d4;strokeColor=#82b366;" vertex="1" parent="YvVL6zBtYwET4k6TKZNd-1">
          <mxGeometry y="-910" width="260" height="20" as="geometry" />
        </mxCell>
        <mxCell id="YvVL6zBtYwET4k6TKZNd-11" value="&lt;font style=&quot;font-size: 14px&quot;&gt;Próba zdobycia wlosia od konia&lt;/font&gt;" style="rounded=0;whiteSpace=wrap;html=1;sketch=0;fillColor=#d5e8d4;strokeColor=#82b366;align=center;" vertex="1" parent="YvVL6zBtYwET4k6TKZNd-1">
          <mxGeometry x="280" y="-830" width="260" height="40" as="geometry" />
        </mxCell>
        <mxCell id="YvVL6zBtYwET4k6TKZNd-12" value="&lt;div&gt;Exchanging item for item/&lt;/div&gt;&lt;div&gt;Wymiana przedmiotu na przedmiot&lt;/div&gt;" style="rounded=0;whiteSpace=wrap;html=1;sketch=0;align=center;fontSize=14;" vertex="1" parent="YvVL6zBtYwET4k6TKZNd-1">
          <mxGeometry x="280" y="-624" width="260" height="40" as="geometry" />
        </mxCell>
        <mxCell id="YvVL6zBtYwET4k6TKZNd-13" value="Hero, Fiddler, Fiddlestick, keys" style="rounded=0;whiteSpace=wrap;html=1;sketch=0;align=center;fontSize=14;fillColor=#d5e8d4;strokeColor=#82b366;" vertex="1" parent="YvVL6zBtYwET4k6TKZNd-1">
          <mxGeometry x="280" y="-584" width="260" height="20" as="geometry" />
        </mxCell>
        <mxCell id="YvVL6zBtYwET4k6TKZNd-14" value="" style="ellipse;whiteSpace=wrap;html=1;aspect=fixed;fontSize=14;align=center;fillColor=#fff2cc;strokeWidth=1;" vertex="1" parent="YvVL6zBtYwET4k6TKZNd-1">
          <mxGeometry x="390" y="-140" width="40" height="40" as="geometry" />
        </mxCell>
        <mxCell id="YvVL6zBtYwET4k6TKZNd-16" value="&lt;div&gt;Fight ending with character`s death/&lt;/div&gt;&lt;div&gt;Walka zakończona śmiercią uczestnika&lt;br&gt;&lt;/div&gt;" style="rounded=0;whiteSpace=wrap;html=1;sketch=0;align=center;fontSize=14;" vertex="1" parent="YvVL6zBtYwET4k6TKZNd-1">
          <mxGeometry x="280" y="-950" width="260" height="40" as="geometry" />
        </mxCell>
        <mxCell id="YvVL6zBtYwET4k6TKZNd-17" value="Hero, &lt;b&gt;rat&lt;/b&gt;" style="rounded=0;whiteSpace=wrap;html=1;sketch=0;align=center;fontSize=14;fillColor=#d5e8d4;strokeColor=#82b366;" vertex="1" parent="YvVL6zBtYwET4k6TKZNd-1">
          <mxGeometry x="280" y="-910" width="260" height="20" as="geometry" />
        </mxCell>
        <mxCell id="YvVL6zBtYwET4k6TKZNd-18" value="&lt;font style=&quot;font-size: 14px&quot;&gt;Próba zdobycia wlosia od konia&lt;/font&gt;" style="rounded=0;whiteSpace=wrap;html=1;sketch=0;fillColor=#d5e8d4;strokeColor=#82b366;align=center;" vertex="1" parent="YvVL6zBtYwET4k6TKZNd-1">
          <mxGeometry y="-830" width="260" height="40" as="geometry" />
        </mxCell>
        <mxCell id="YvVL6zBtYwET4k6TKZNd-19" value="" style="ellipse;whiteSpace=wrap;html=1;aspect=fixed;fontSize=14;align=center;fillColor=#000000;" vertex="1" parent="YvVL6zBtYwET4k6TKZNd-1">
          <mxGeometry x="-100" y="-830" width="40" height="40" as="geometry" />
        </mxCell>
        <mxCell id="YvVL6zBtYwET4k6TKZNd-20" value="" style="ellipse;whiteSpace=wrap;html=1;aspect=fixed;fontSize=14;align=center;fillColor=#000000;" vertex="1" parent="YvVL6zBtYwET4k6TKZNd-1">
          <mxGeometry x="-100" y="-940" width="40" height="40" as="geometry" />
        </mxCell>
        <mxCell id="YvVL6zBtYwET4k6TKZNd-21" value="" style="endArrow=classic;html=1;rounded=0;entryX=1;entryY=0.5;entryDx=0;entryDy=0;exitX=0;exitY=0.5;exitDx=0;exitDy=0;" edge="1" parent="YvVL6zBtYwET4k6TKZNd-1" source="YvVL6zBtYwET4k6TKZNd-18" target="YvVL6zBtYwET4k6TKZNd-19">
          <mxGeometry width="50" height="50" relative="1" as="geometry">
            <mxPoint x="-20" y="-800" as="sourcePoint" />
            <mxPoint x="310" y="-830" as="targetPoint" />
          </mxGeometry>
        </mxCell>
        <mxCell id="YvVL6zBtYwET4k6TKZNd-22" value="Fight ending with character’s escape / Walka zakończona ucieczką uczestnika" style="rounded=0;whiteSpace=wrap;html=1;sketch=0;align=center;fontSize=14;" vertex="1" parent="YvVL6zBtYwET4k6TKZNd-1">
          <mxGeometry x="280" y="-330" width="260" height="40" as="geometry" />
        </mxCell>
        <mxCell id="YvVL6zBtYwET4k6TKZNd-23" value="Hero, &lt;b&gt;Fiddler&lt;/b&gt;" style="rounded=0;whiteSpace=wrap;html=1;sketch=0;align=center;fontSize=14;fillColor=#d5e8d4;strokeColor=#82b366;" vertex="1" parent="YvVL6zBtYwET4k6TKZNd-1">
          <mxGeometry x="280" y="-290" width="260" height="20" as="geometry" />
        </mxCell>
        <mxCell id="YvVL6zBtYwET4k6TKZNd-25" style="edgeStyle=orthogonalEdgeStyle;rounded=0;orthogonalLoop=1;jettySize=auto;html=1;" edge="1" parent="YvVL6zBtYwET4k6TKZNd-1" source="YvVL6zBtYwET4k6TKZNd-26" target="YvVL6zBtYwET4k6TKZNd-14">
          <mxGeometry relative="1" as="geometry" />
        </mxCell>
        <mxCell id="YvVL6zBtYwET4k6TKZNd-26" value="&lt;font style=&quot;font-size: 14px&quot;&gt;Powrót do pasterza, zwrot owiec, otrzymanie 30 monet&lt;br&gt;&lt;/font&gt;" style="rounded=0;whiteSpace=wrap;html=1;sketch=0;fillColor=#d5e8d4;strokeColor=#82b366;align=center;" vertex="1" parent="YvVL6zBtYwET4k6TKZNd-1">
          <mxGeometry x="280" y="-220" width="260" height="40" as="geometry" />
        </mxCell>
        <mxCell id="YvVL6zBtYwET4k6TKZNd-27" value="Making a deal / Transakcja kupna-sprzedaży" style="rounded=0;whiteSpace=wrap;html=1;sketch=0;align=center;fontSize=14;" vertex="1" parent="YvVL6zBtYwET4k6TKZNd-1">
          <mxGeometry x="600" y="-1180" width="260" height="40" as="geometry" />
        </mxCell>
        <mxCell id="YvVL6zBtYwET4k6TKZNd-28" style="edgeStyle=orthogonalEdgeStyle;rounded=0;orthogonalLoop=1;jettySize=auto;html=1;entryX=1;entryY=0.5;entryDx=0;entryDy=0;exitX=0.997;exitY=0.643;exitDx=0;exitDy=0;exitPerimeter=0;" edge="1" parent="YvVL6zBtYwET4k6TKZNd-1" source="YvVL6zBtYwET4k6TKZNd-27" target="YvVL6zBtYwET4k6TKZNd-12">
          <mxGeometry relative="1" as="geometry">
            <Array as="points">
              <mxPoint x="890" y="-1154" />
              <mxPoint x="890" y="-604" />
            </Array>
          </mxGeometry>
        </mxCell>
        <mxCell id="YvVL6zBtYwET4k6TKZNd-29" value="Merchant, Fiddlestick, 50 coins" style="rounded=0;whiteSpace=wrap;html=1;sketch=0;align=center;fontSize=14;fillColor=#d5e8d4;strokeColor=#82b366;" vertex="1" parent="YvVL6zBtYwET4k6TKZNd-1">
          <mxGeometry x="600" y="-1140" width="260" height="20" as="geometry" />
        </mxCell>
        <mxCell id="YvVL6zBtYwET4k6TKZNd-30" value="Kupno smyczka po zaniżonej cenie w podzięce za pozbycie się szczurów" style="rounded=0;whiteSpace=wrap;html=1;sketch=0;align=center;fontSize=14;fillColor=#d5e8d4;strokeColor=#82b366;" vertex="1" parent="YvVL6zBtYwET4k6TKZNd-1">
          <mxGeometry x="600" y="-950" width="260" height="40" as="geometry" />
        </mxCell>
        <mxCell id="YvVL6zBtYwET4k6TKZNd-31" style="edgeStyle=orthogonalEdgeStyle;rounded=0;orthogonalLoop=1;jettySize=auto;html=1;entryX=1;entryY=0.5;entryDx=0;entryDy=0;exitX=1;exitY=0.75;exitDx=0;exitDy=0;" edge="1" parent="YvVL6zBtYwET4k6TKZNd-1" source="YvVL6zBtYwET4k6TKZNd-30" target="YvVL6zBtYwET4k6TKZNd-12">
          <mxGeometry relative="1" as="geometry">
            <Array as="points">
              <mxPoint x="890" y="-920" />
              <mxPoint x="890" y="-604" />
            </Array>
          </mxGeometry>
        </mxCell>
        <mxCell id="YvVL6zBtYwET4k6TKZNd-32" value="Merchant, Fiddlestick, 25 coins" style="rounded=0;whiteSpace=wrap;html=1;sketch=0;align=center;fontSize=14;fillColor=#d5e8d4;strokeColor=#82b366;" vertex="1" parent="YvVL6zBtYwET4k6TKZNd-1">
          <mxGeometry x="600" y="-910" width="260" height="20" as="geometry" />
        </mxCell>
        <mxCell id="YvVL6zBtYwET4k6TKZNd-33" value="Knowledge acquisition / Pozyskanie wiedzy fabularnej" style="rounded=0;whiteSpace=wrap;html=1;sketch=0;align=center;fontSize=14;" vertex="1" parent="YvVL6zBtYwET4k6TKZNd-1">
          <mxGeometry y="-1260" width="260" height="40" as="geometry" />
        </mxCell>
        <mxCell id="YvVL6zBtYwET4k6TKZNd-34" value="" style="edgeStyle=orthogonalEdgeStyle;rounded=0;orthogonalLoop=1;jettySize=auto;html=1;" edge="1" parent="YvVL6zBtYwET4k6TKZNd-1" source="YvVL6zBtYwET4k6TKZNd-35">
          <mxGeometry relative="1" as="geometry">
            <mxPoint x="410" y="-1140" as="targetPoint" />
          </mxGeometry>
        </mxCell>
        <mxCell id="YvVL6zBtYwET4k6TKZNd-35" value="Inkeeper/Fiddler" style="rounded=0;whiteSpace=wrap;html=1;sketch=0;align=center;fontSize=14;fillColor=#d5e8d4;strokeColor=#82b366;" vertex="1" parent="YvVL6zBtYwET4k6TKZNd-1">
          <mxGeometry x="280" y="-1220" width="260" height="20" as="geometry" />
        </mxCell>
        <mxCell id="YvVL6zBtYwET4k6TKZNd-36" value="&lt;div&gt;Getting Knowledge from conversation/&lt;/div&gt;&lt;div&gt;Rozmowa z pozyskaniem informacji&lt;/div&gt;" style="rounded=0;whiteSpace=wrap;html=1;sketch=0;align=center;fontSize=14;" vertex="1" parent="YvVL6zBtYwET4k6TKZNd-1">
          <mxGeometry x="280" y="-1260" width="260" height="40" as="geometry" />
        </mxCell>
        <mxCell id="YvVL6zBtYwET4k6TKZNd-37" style="edgeStyle=orthogonalEdgeStyle;rounded=0;orthogonalLoop=1;jettySize=auto;html=1;entryX=0.5;entryY=0;entryDx=0;entryDy=0;exitX=0.5;exitY=1;exitDx=0;exitDy=0;" edge="1" parent="YvVL6zBtYwET4k6TKZNd-1" source="YvVL6zBtYwET4k6TKZNd-38" target="YvVL6zBtYwET4k6TKZNd-4">
          <mxGeometry relative="1" as="geometry">
            <mxPoint x="110" y="-1190" as="sourcePoint" />
            <mxPoint x="410" y="-1150" as="targetPoint" />
            <Array as="points">
              <mxPoint x="130" y="-1160" />
              <mxPoint x="410" y="-1160" />
            </Array>
          </mxGeometry>
        </mxCell>
        <mxCell id="YvVL6zBtYwET4k6TKZNd-38" value="Road" style="rounded=0;whiteSpace=wrap;html=1;sketch=0;align=center;fontSize=14;fillColor=#d5e8d4;strokeColor=#82b366;" vertex="1" parent="YvVL6zBtYwET4k6TKZNd-1">
          <mxGeometry y="-1220" width="260" height="20" as="geometry" />
        </mxCell>
        <mxCell id="YvVL6zBtYwET4k6TKZNd-39" value="" style="rounded=0;whiteSpace=wrap;html=1;sketch=0;align=center;fontSize=14;fillColor=none;" vertex="1" parent="YvVL6zBtYwET4k6TKZNd-1">
          <mxGeometry x="-10" y="-960" width="560" height="80" as="geometry" />
        </mxCell>
        <mxCell id="YvVL6zBtYwET4k6TKZNd-40" value="" style="edgeStyle=orthogonalEdgeStyle;rounded=0;orthogonalLoop=1;jettySize=auto;html=1;exitX=0.018;exitY=0.5;exitDx=0;exitDy=0;exitPerimeter=0;entryX=1;entryY=0.5;entryDx=0;entryDy=0;" edge="1" parent="YvVL6zBtYwET4k6TKZNd-1" source="YvVL6zBtYwET4k6TKZNd-39" target="YvVL6zBtYwET4k6TKZNd-20">
          <mxGeometry relative="1" as="geometry">
            <mxPoint x="129.82999999999998" y="-889.9999999999998" as="sourcePoint" />
            <mxPoint x="129.82999999999998" y="-849.9999999999998" as="targetPoint" />
          </mxGeometry>
        </mxCell>
        <mxCell id="YvVL6zBtYwET4k6TKZNd-41" value="" style="rounded=0;whiteSpace=wrap;html=1;sketch=0;align=center;fontSize=14;fillColor=none;" vertex="1" parent="YvVL6zBtYwET4k6TKZNd-1">
          <mxGeometry x="-10" y="-840" width="560" height="80" as="geometry" />
        </mxCell>
        <mxCell id="YvVL6zBtYwET4k6TKZNd-42" value="" style="edgeStyle=orthogonalEdgeStyle;rounded=0;orthogonalLoop=1;jettySize=auto;html=1;entryX=0;entryY=0.5;entryDx=0;entryDy=0;exitX=0.5;exitY=1;exitDx=0;exitDy=0;" edge="1" parent="YvVL6zBtYwET4k6TKZNd-1" source="YvVL6zBtYwET4k6TKZNd-35" target="YvVL6zBtYwET4k6TKZNd-27">
          <mxGeometry relative="1" as="geometry">
            <mxPoint x="420" y="-1170" as="sourcePoint" />
            <mxPoint x="420" y="-1130" as="targetPoint" />
            <Array as="points">
              <mxPoint x="410" y="-1160" />
            </Array>
          </mxGeometry>
        </mxCell>
        <mxCell id="YvVL6zBtYwET4k6TKZNd-43" style="edgeStyle=orthogonalEdgeStyle;rounded=0;orthogonalLoop=1;jettySize=auto;html=1;exitX=0.5;exitY=1;exitDx=0;exitDy=0;" edge="1" parent="YvVL6zBtYwET4k6TKZNd-1" source="YvVL6zBtYwET4k6TKZNd-5">
          <mxGeometry relative="1" as="geometry">
            <mxPoint x="420" y="-980" as="sourcePoint" />
            <mxPoint x="410" y="-1050" as="targetPoint" />
          </mxGeometry>
        </mxCell>
        <mxCell id="YvVL6zBtYwET4k6TKZNd-44" style="edgeStyle=orthogonalEdgeStyle;rounded=0;orthogonalLoop=1;jettySize=auto;html=1;entryX=0;entryY=0.75;entryDx=0;entryDy=0;exitX=1;exitY=0.75;exitDx=0;exitDy=0;" edge="1" parent="YvVL6zBtYwET4k6TKZNd-1" source="YvVL6zBtYwET4k6TKZNd-16" target="YvVL6zBtYwET4k6TKZNd-30">
          <mxGeometry relative="1" as="geometry">
            <mxPoint x="570" y="-900" as="sourcePoint" />
            <mxPoint x="420" y="-960" as="targetPoint" />
          </mxGeometry>
        </mxCell>
        <mxCell id="YvVL6zBtYwET4k6TKZNd-45" value="Kupno smyczka po zaniżonej cenie w zamian za dostarczenie materiału końskiego włosia" style="rounded=0;whiteSpace=wrap;html=1;sketch=0;align=center;fontSize=14;fillColor=#d5e8d4;strokeColor=#82b366;" vertex="1" parent="YvVL6zBtYwET4k6TKZNd-1">
          <mxGeometry x="600" y="-830" width="260" height="50" as="geometry" />
        </mxCell>
        <mxCell id="YvVL6zBtYwET4k6TKZNd-46" value="Merchant, Fiddlestick, 25 coins" style="rounded=0;whiteSpace=wrap;html=1;sketch=0;align=center;fontSize=14;fillColor=#d5e8d4;strokeColor=#82b366;" vertex="1" parent="YvVL6zBtYwET4k6TKZNd-1">
          <mxGeometry x="600" y="-780" width="260" height="20" as="geometry" />
        </mxCell>
        <mxCell id="YvVL6zBtYwET4k6TKZNd-47" style="edgeStyle=orthogonalEdgeStyle;rounded=0;orthogonalLoop=1;jettySize=auto;html=1;entryX=0.75;entryY=0;entryDx=0;entryDy=0;exitX=0.75;exitY=1;exitDx=0;exitDy=0;" edge="1" parent="YvVL6zBtYwET4k6TKZNd-1" source="YvVL6zBtYwET4k6TKZNd-39" target="YvVL6zBtYwET4k6TKZNd-41">
          <mxGeometry relative="1" as="geometry">
            <mxPoint x="420" y="-980" as="sourcePoint" />
            <mxPoint x="420" y="-950" as="targetPoint" />
          </mxGeometry>
        </mxCell>
        <mxCell id="YvVL6zBtYwET4k6TKZNd-48" style="edgeStyle=orthogonalEdgeStyle;rounded=0;orthogonalLoop=1;jettySize=auto;html=1;entryX=0.003;entryY=0.399;entryDx=0;entryDy=0;exitX=1;exitY=0.5;exitDx=0;exitDy=0;entryPerimeter=0;" edge="1" parent="YvVL6zBtYwET4k6TKZNd-1" source="YvVL6zBtYwET4k6TKZNd-11" target="YvVL6zBtYwET4k6TKZNd-45">
          <mxGeometry relative="1" as="geometry">
            <mxPoint x="560" y="-810" as="sourcePoint" />
            <mxPoint x="420" y="-829.9999999999998" as="targetPoint" />
          </mxGeometry>
        </mxCell>
        <mxCell id="YvVL6zBtYwET4k6TKZNd-49" value="Otrzymanie smyczka za darmo za wykonanie obu zadań" style="rounded=0;whiteSpace=wrap;html=1;sketch=0;align=center;fontSize=14;fillColor=#d5e8d4;strokeColor=#82b366;" vertex="1" parent="YvVL6zBtYwET4k6TKZNd-1">
          <mxGeometry x="280" y="-730" width="260" height="50" as="geometry" />
        </mxCell>
        <mxCell id="YvVL6zBtYwET4k6TKZNd-50" value="Merchant, Fiddlestick" style="rounded=0;whiteSpace=wrap;html=1;sketch=0;align=center;fontSize=14;fillColor=#d5e8d4;strokeColor=#82b366;" vertex="1" parent="YvVL6zBtYwET4k6TKZNd-1">
          <mxGeometry x="280" y="-680" width="260" height="20" as="geometry" />
        </mxCell>
        <mxCell id="YvVL6zBtYwET4k6TKZNd-51" style="edgeStyle=orthogonalEdgeStyle;rounded=0;orthogonalLoop=1;jettySize=auto;html=1;entryX=0.5;entryY=0;entryDx=0;entryDy=0;exitX=0.75;exitY=1;exitDx=0;exitDy=0;" edge="1" parent="YvVL6zBtYwET4k6TKZNd-1" source="YvVL6zBtYwET4k6TKZNd-41" target="YvVL6zBtYwET4k6TKZNd-49">
          <mxGeometry relative="1" as="geometry">
            <mxPoint x="420" y="-869.9999999999998" as="sourcePoint" />
            <mxPoint x="420" y="-829.9999999999998" as="targetPoint" />
          </mxGeometry>
        </mxCell>
        <mxCell id="YvVL6zBtYwET4k6TKZNd-52" style="edgeStyle=orthogonalEdgeStyle;rounded=0;orthogonalLoop=1;jettySize=auto;html=1;entryX=0.5;entryY=0;entryDx=0;entryDy=0;exitX=0.5;exitY=1;exitDx=0;exitDy=0;" edge="1" parent="YvVL6zBtYwET4k6TKZNd-1" source="YvVL6zBtYwET4k6TKZNd-50" target="YvVL6zBtYwET4k6TKZNd-12">
          <mxGeometry relative="1" as="geometry">
            <mxPoint x="420" y="-770" as="sourcePoint" />
            <mxPoint x="420" y="-740" as="targetPoint" />
          </mxGeometry>
        </mxCell>
        <mxCell id="YvVL6zBtYwET4k6TKZNd-53" value="Hero&lt;b&gt;,&lt;/b&gt; horse" style="rounded=0;whiteSpace=wrap;html=1;sketch=0;align=center;fontSize=14;fillColor=#d5e8d4;strokeColor=#82b366;" vertex="1" parent="YvVL6zBtYwET4k6TKZNd-1">
          <mxGeometry x="280" y="-790" width="260" height="20" as="geometry" />
        </mxCell>
        <mxCell id="YvVL6zBtYwET4k6TKZNd-54" value="&lt;b&gt;Hero&lt;/b&gt;, horse" style="rounded=0;whiteSpace=wrap;html=1;sketch=0;align=center;fontSize=14;fillColor=#d5e8d4;strokeColor=#82b366;" vertex="1" parent="YvVL6zBtYwET4k6TKZNd-1">
          <mxGeometry y="-790" width="260" height="20" as="geometry" />
        </mxCell>
        <mxCell id="YvVL6zBtYwET4k6TKZNd-55" style="edgeStyle=orthogonalEdgeStyle;rounded=0;orthogonalLoop=1;jettySize=auto;html=1;entryX=0.25;entryY=0;entryDx=0;entryDy=0;exitX=0.5;exitY=1;exitDx=0;exitDy=0;" edge="1" parent="YvVL6zBtYwET4k6TKZNd-1" source="YvVL6zBtYwET4k6TKZNd-38" target="YvVL6zBtYwET4k6TKZNd-39">
          <mxGeometry relative="1" as="geometry">
            <mxPoint x="115" y="-1180" as="sourcePoint" />
            <mxPoint x="420" y="-1130" as="targetPoint" />
            <Array as="points">
              <mxPoint x="130" y="-1170" />
              <mxPoint x="130" y="-1170" />
            </Array>
          </mxGeometry>
        </mxCell>
        <mxCell id="YvVL6zBtYwET4k6TKZNd-56" style="edgeStyle=orthogonalEdgeStyle;rounded=0;orthogonalLoop=1;jettySize=auto;html=1;entryX=0.75;entryY=0;entryDx=0;entryDy=0;exitX=1;exitY=0.75;exitDx=0;exitDy=0;" edge="1" parent="YvVL6zBtYwET4k6TKZNd-1" target="YvVL6zBtYwET4k6TKZNd-41">
          <mxGeometry relative="1" as="geometry">
            <mxPoint x="540" y="-1030.1099999999997" as="sourcePoint" />
            <mxPoint x="600" y="-1030.1099999999997" as="targetPoint" />
            <Array as="points">
              <mxPoint x="570" y="-1030" />
              <mxPoint x="570" y="-860" />
              <mxPoint x="410" y="-860" />
            </Array>
          </mxGeometry>
        </mxCell>
        <mxCell id="YvVL6zBtYwET4k6TKZNd-57" style="edgeStyle=orthogonalEdgeStyle;rounded=0;orthogonalLoop=1;jettySize=auto;html=1;entryX=1;entryY=0.5;entryDx=0;entryDy=0;exitX=0.5;exitY=1;exitDx=0;exitDy=0;" edge="1" parent="YvVL6zBtYwET4k6TKZNd-1" source="YvVL6zBtYwET4k6TKZNd-46" target="YvVL6zBtYwET4k6TKZNd-12">
          <mxGeometry relative="1" as="geometry">
            <mxPoint x="600" y="-739.95" as="sourcePoint" />
            <mxPoint x="660.78" y="-740" as="targetPoint" />
          </mxGeometry>
        </mxCell>
        <mxCell id="YvVL6zBtYwET4k6TKZNd-58" value="&lt;div&gt;Getting Knowledge from conversation/&lt;/div&gt;&lt;div&gt;Rozmowa z pozyskaniem informacji&lt;/div&gt;" style="rounded=0;whiteSpace=wrap;html=1;sketch=0;align=center;fontSize=14;" vertex="1" parent="YvVL6zBtYwET4k6TKZNd-1">
          <mxGeometry x="280" y="-490" width="260" height="40" as="geometry" />
        </mxCell>
        <mxCell id="YvVL6zBtYwET4k6TKZNd-59" style="edgeStyle=orthogonalEdgeStyle;rounded=0;orthogonalLoop=1;jettySize=auto;html=1;exitX=0.5;exitY=1;exitDx=0;exitDy=0;" edge="1" parent="YvVL6zBtYwET4k6TKZNd-1">
          <mxGeometry relative="1" as="geometry">
            <mxPoint x="410" y="-524" as="sourcePoint" />
            <mxPoint x="410" y="-489" as="targetPoint" />
            <Array as="points">
              <mxPoint x="410" y="-489" />
            </Array>
          </mxGeometry>
        </mxCell>
        <mxCell id="YvVL6zBtYwET4k6TKZNd-60" value="Sheperd" style="rounded=0;whiteSpace=wrap;html=1;sketch=0;align=center;fontSize=14;fillColor=#d5e8d4;strokeColor=#82b366;" vertex="1" parent="YvVL6zBtYwET4k6TKZNd-1">
          <mxGeometry x="280" y="-450" width="260" height="20" as="geometry" />
        </mxCell>
        <mxCell id="YvVL6zBtYwET4k6TKZNd-61" value="&lt;font style=&quot;font-size: 14px&quot;&gt;Skrzypek ucieka do lasu uprowadzając owce pasterza&lt;br&gt;&lt;/font&gt;" style="rounded=0;whiteSpace=wrap;html=1;sketch=0;fillColor=#d5e8d4;strokeColor=#82b366;align=center;" vertex="1" parent="YvVL6zBtYwET4k6TKZNd-1">
          <mxGeometry x="280" y="-564" width="260" height="40" as="geometry" />
        </mxCell>
        <mxCell id="YvVL6zBtYwET4k6TKZNd-62" value="&lt;font style=&quot;font-size: 14px&quot;&gt;Pasterz mówi, że widział jak skrzypek uciekł z owcami do lasu, oferuje 30 monet za sprowadzenie ich z powrotem&lt;br&gt;&lt;/font&gt;" style="rounded=0;whiteSpace=wrap;html=1;sketch=0;fillColor=#d5e8d4;strokeColor=#82b366;align=center;" vertex="1" parent="YvVL6zBtYwET4k6TKZNd-1">
          <mxGeometry x="280" y="-430" width="260" height="60" as="geometry" />
        </mxCell>
        <mxCell id="YvVL6zBtYwET4k6TKZNd-63" value="Fight ending with character’s escape / Walka zakończona ucieczką uczestnika" style="rounded=0;whiteSpace=wrap;html=1;sketch=0;align=center;fontSize=14;" vertex="1" parent="YvVL6zBtYwET4k6TKZNd-1">
          <mxGeometry x="3" y="-330" width="260" height="40" as="geometry" />
        </mxCell>
        <mxCell id="YvVL6zBtYwET4k6TKZNd-64" value="&lt;b&gt;Hero&lt;/b&gt;, Fiddler" style="rounded=0;whiteSpace=wrap;html=1;sketch=0;align=center;fontSize=14;fillColor=#d5e8d4;strokeColor=#82b366;" vertex="1" parent="YvVL6zBtYwET4k6TKZNd-1">
          <mxGeometry x="3" y="-290" width="260" height="20" as="geometry" />
        </mxCell>
        <mxCell id="YvVL6zBtYwET4k6TKZNd-65" style="edgeStyle=orthogonalEdgeStyle;rounded=0;orthogonalLoop=1;jettySize=auto;html=1;exitX=0.5;exitY=1;exitDx=0;exitDy=0;entryX=0.75;entryY=-0.016;entryDx=0;entryDy=0;entryPerimeter=0;" edge="1" parent="YvVL6zBtYwET4k6TKZNd-1" target="YvVL6zBtYwET4k6TKZNd-75">
          <mxGeometry relative="1" as="geometry">
            <mxPoint x="409.88" y="-370" as="sourcePoint" />
            <mxPoint x="409.88" y="-335" as="targetPoint" />
            <Array as="points" />
          </mxGeometry>
        </mxCell>
        <mxCell id="YvVL6zBtYwET4k6TKZNd-66" value="&lt;div&gt;Getting Knowledge from conversation/&lt;/div&gt;&lt;div&gt;Rozmowa z pozyskaniem informacji&lt;/div&gt;" style="rounded=0;whiteSpace=wrap;html=1;sketch=0;align=center;fontSize=14;" vertex="1" parent="YvVL6zBtYwET4k6TKZNd-1">
          <mxGeometry x="567" y="-490" width="263" height="40" as="geometry" />
        </mxCell>
        <mxCell id="YvVL6zBtYwET4k6TKZNd-67" value="Fiddler" style="rounded=0;whiteSpace=wrap;html=1;sketch=0;align=center;fontSize=14;fillColor=#d5e8d4;strokeColor=#82b366;" vertex="1" parent="YvVL6zBtYwET4k6TKZNd-1">
          <mxGeometry x="567" y="-450" width="263" height="20" as="geometry" />
        </mxCell>
        <mxCell id="YvVL6zBtYwET4k6TKZNd-68" value="&lt;font style=&quot;font-size: 14px&quot;&gt;Skrzypek mówi, że nie podoba mu się zarabianie na życie muzyką, więc uprowadził owce z pastwiska i żąda okupu 100 monet&lt;br&gt;&lt;/font&gt;" style="rounded=0;whiteSpace=wrap;html=1;sketch=0;fillColor=#d5e8d4;strokeColor=#82b366;align=center;" vertex="1" parent="YvVL6zBtYwET4k6TKZNd-1">
          <mxGeometry x="567" y="-430" width="263" height="70" as="geometry" />
        </mxCell>
        <mxCell id="YvVL6zBtYwET4k6TKZNd-69" style="edgeStyle=orthogonalEdgeStyle;rounded=0;orthogonalLoop=1;jettySize=auto;html=1;exitX=0.5;exitY=1;exitDx=0;exitDy=0;" edge="1" parent="YvVL6zBtYwET4k6TKZNd-1" source="YvVL6zBtYwET4k6TKZNd-61">
          <mxGeometry relative="1" as="geometry">
            <mxPoint x="580" y="-530" as="sourcePoint" />
            <mxPoint x="697" y="-490" as="targetPoint" />
            <Array as="points">
              <mxPoint x="410" y="-510" />
              <mxPoint x="697" y="-510" />
            </Array>
          </mxGeometry>
        </mxCell>
        <mxCell id="YvVL6zBtYwET4k6TKZNd-70" value="Making a deal / Transakcja kupna-sprzedaży" style="rounded=0;whiteSpace=wrap;html=1;sketch=0;align=center;fontSize=14;" vertex="1" parent="YvVL6zBtYwET4k6TKZNd-1">
          <mxGeometry x="567" y="-340" width="260" height="40" as="geometry" />
        </mxCell>
        <mxCell id="YvVL6zBtYwET4k6TKZNd-71" value="Fiddler, nothing, 100 coins" style="rounded=0;whiteSpace=wrap;html=1;sketch=0;align=center;fontSize=14;fillColor=#d5e8d4;strokeColor=#82b366;" vertex="1" parent="YvVL6zBtYwET4k6TKZNd-1">
          <mxGeometry x="567" y="-300" width="260" height="20" as="geometry" />
        </mxCell>
        <mxCell id="YvVL6zBtYwET4k6TKZNd-73" style="edgeStyle=orthogonalEdgeStyle;rounded=0;orthogonalLoop=1;jettySize=auto;html=1;exitX=0.75;exitY=1;exitDx=0;exitDy=0;entryX=0.5;entryY=0;entryDx=0;entryDy=0;" edge="1" parent="YvVL6zBtYwET4k6TKZNd-1" source="YvVL6zBtYwET4k6TKZNd-75" target="YvVL6zBtYwET4k6TKZNd-26">
          <mxGeometry relative="1" as="geometry">
            <mxPoint x="420" y="-170" as="sourcePoint" />
            <mxPoint x="420" y="-130" as="targetPoint" />
          </mxGeometry>
        </mxCell>
        <mxCell id="YvVL6zBtYwET4k6TKZNd-74" style="edgeStyle=orthogonalEdgeStyle;rounded=0;orthogonalLoop=1;jettySize=auto;html=1;exitX=0.5;exitY=1;exitDx=0;exitDy=0;entryX=0.5;entryY=0;entryDx=0;entryDy=0;startArrow=none;" edge="1" parent="YvVL6zBtYwET4k6TKZNd-1" source="YvVL6zBtYwET4k6TKZNd-76" target="YvVL6zBtYwET4k6TKZNd-26">
          <mxGeometry relative="1" as="geometry">
            <mxPoint x="430" y="-160" as="sourcePoint" />
            <mxPoint x="430" y="-120" as="targetPoint" />
            <Array as="points">
              <mxPoint x="697" y="-240" />
              <mxPoint x="410" y="-240" />
            </Array>
          </mxGeometry>
        </mxCell>
        <mxCell id="YvVL6zBtYwET4k6TKZNd-75" value="" style="rounded=0;whiteSpace=wrap;html=1;sketch=0;align=center;fontSize=14;fillColor=none;" vertex="1" parent="YvVL6zBtYwET4k6TKZNd-1">
          <mxGeometry x="-10" y="-340" width="560" height="80" as="geometry" />
        </mxCell>
        <mxCell id="YvVL6zBtYwET4k6TKZNd-76" value="&lt;font style=&quot;font-size: 14px&quot;&gt;Skrzypek wraca na pastwisko&lt;br&gt;&lt;/font&gt;" style="rounded=0;whiteSpace=wrap;html=1;sketch=0;fillColor=#d5e8d4;strokeColor=#82b366;align=center;" vertex="1" parent="YvVL6zBtYwET4k6TKZNd-1">
          <mxGeometry x="567" y="-280" width="260" height="20" as="geometry" />
        </mxCell>
        <mxCell id="YvVL6zBtYwET4k6TKZNd-77" value="" style="edgeStyle=orthogonalEdgeStyle;rounded=0;orthogonalLoop=1;jettySize=auto;html=1;exitX=0.5;exitY=1;exitDx=0;exitDy=0;entryX=0.5;entryY=0;entryDx=0;entryDy=0;endArrow=none;" edge="1" parent="YvVL6zBtYwET4k6TKZNd-1" source="YvVL6zBtYwET4k6TKZNd-71" target="YvVL6zBtYwET4k6TKZNd-76">
          <mxGeometry relative="1" as="geometry">
            <mxPoint x="697" y="-270" as="sourcePoint" />
            <mxPoint x="410" y="-220" as="targetPoint" />
          </mxGeometry>
        </mxCell>
        <mxCell id="YvVL6zBtYwET4k6TKZNd-78" value="Sheperd" style="rounded=0;whiteSpace=wrap;html=1;sketch=0;align=center;fontSize=14;fillColor=#d5e8d4;strokeColor=#82b366;" vertex="1" parent="YvVL6zBtYwET4k6TKZNd-1">
          <mxGeometry x="600" y="-1260" width="260" height="20" as="geometry" />
        </mxCell>
        <mxCell id="YvVL6zBtYwET4k6TKZNd-79" value="&lt;div&gt;Getting Knowledge from conversation/&lt;/div&gt;&lt;div&gt;Rozmowa z pozyskaniem informacji&lt;/div&gt;" style="rounded=0;whiteSpace=wrap;html=1;sketch=0;align=center;fontSize=14;" vertex="1" parent="YvVL6zBtYwET4k6TKZNd-1">
          <mxGeometry x="600" y="-1300" width="260" height="40" as="geometry" />
        </mxCell>
        <mxCell id="YvVL6zBtYwET4k6TKZNd-80" value="Pasterz myśli, że skrzypek na pastwisku knuje coś niedobrego, nie ufa mu" style="rounded=0;whiteSpace=wrap;html=1;sketch=0;align=center;fontSize=14;fillColor=#d5e8d4;strokeColor=#82b366;" vertex="1" parent="YvVL6zBtYwET4k6TKZNd-1">
          <mxGeometry x="600" y="-1240" width="260" height="40" as="geometry" />
        </mxCell>
        <mxCell id="YvVL6zBtYwET4k6TKZNd-83" style="edgeStyle=orthogonalEdgeStyle;rounded=0;orthogonalLoop=1;jettySize=auto;html=1;entryX=0.5;entryY=0;entryDx=0;entryDy=0;startArrow=none;" edge="1" parent="YvVL6zBtYwET4k6TKZNd-1">
          <mxGeometry relative="1" as="geometry">
            <mxPoint x="698.39" y="-360" as="sourcePoint" />
            <mxPoint x="698.39" y="-340" as="targetPoint" />
            <Array as="points">
              <mxPoint x="698.39" y="-360" />
              <mxPoint x="698.39" y="-360" />
            </Array>
          </mxGeometry>
        </mxCell>
      </root>
    </mxGraphModel>
  </diagram>
  <diagram id="OMTL1QQwcfvFI3yKq2kf" name="Page-4">
    <mxGraphModel dx="861" dy="537" grid="1" gridSize="10" guides="1" tooltips="1" connect="1" arrows="1" fold="1" page="1" pageScale="1" pageWidth="827" pageHeight="1169" math="0" shadow="0">
      <root>
        <mxCell id="55iJjRwArS4zSgEi5OsC-0" />
        <mxCell id="55iJjRwArS4zSgEi5OsC-1" parent="55iJjRwArS4zSgEi5OsC-0" />
        <mxCell id="55iJjRwArS4zSgEi5OsC-2" value="&lt;font face=&quot;arial&quot;&gt;&lt;span style=&quot;font-size: 14px&quot;&gt;Detail production / Produkcja szczegółowa&lt;/span&gt;&lt;/font&gt;" style="rounded=0;whiteSpace=wrap;html=1;sketch=0;fillColor=#d5e8d4;strokeColor=#82b366;align=center;" vertex="1" parent="55iJjRwArS4zSgEi5OsC-1">
          <mxGeometry x="720" y="469" width="260" height="40" as="geometry" />
        </mxCell>
        <mxCell id="55iJjRwArS4zSgEi5OsC-3" value="&lt;span style=&quot;font-family: &amp;#34;arial&amp;#34;&quot;&gt;Generic production / Produkcja generyczna&lt;/span&gt;" style="rounded=0;whiteSpace=wrap;html=1;sketch=0;align=center;fontSize=14;" vertex="1" parent="55iJjRwArS4zSgEi5OsC-1">
          <mxGeometry x="720" y="589" width="260" height="40" as="geometry" />
        </mxCell>
        <mxCell id="55iJjRwArS4zSgEi5OsC-4" value="(Elementy wykorzystane w produkcji)" style="rounded=0;whiteSpace=wrap;html=1;sketch=0;align=center;fontSize=14;fillColor=#d5e8d4;strokeColor=#82b366;" vertex="1" parent="55iJjRwArS4zSgEi5OsC-1">
          <mxGeometry x="720" y="629" width="260" height="20" as="geometry" />
        </mxCell>
        <mxCell id="55iJjRwArS4zSgEi5OsC-5" value="" style="rounded=0;whiteSpace=wrap;html=1;fillColor=#fff2cc;fontFamily=Helvetica;fontSize=14;strokeColor=none;" vertex="1" parent="55iJjRwArS4zSgEi5OsC-1">
          <mxGeometry x="720" y="1379" width="280" height="116" as="geometry" />
        </mxCell>
        <mxCell id="55iJjRwArS4zSgEi5OsC-6" value="&lt;font style=&quot;font-size: 14px&quot;&gt;(Fakt z innej misji mogący wpłynąć na akcje bieżącej, nr questu)&lt;/font&gt;" style="rounded=0;whiteSpace=wrap;html=1;strokeColor=#9673a6;fillColor=#e1d5e7;" vertex="1" parent="55iJjRwArS4zSgEi5OsC-1">
          <mxGeometry x="720" y="909" width="260" height="40" as="geometry" />
        </mxCell>
        <mxCell id="55iJjRwArS4zSgEi5OsC-7" style="rounded=0;orthogonalLoop=1;jettySize=auto;html=1;fontSize=14;" edge="1" parent="55iJjRwArS4zSgEi5OsC-1" target="55iJjRwArS4zSgEi5OsC-8">
          <mxGeometry relative="1" as="geometry">
            <mxPoint x="750" y="1189" as="sourcePoint" />
          </mxGeometry>
        </mxCell>
        <mxCell id="55iJjRwArS4zSgEi5OsC-8" value="" style="ellipse;whiteSpace=wrap;html=1;aspect=fixed;fontSize=14;align=center;fillColor=#000000;" vertex="1" parent="55iJjRwArS4zSgEi5OsC-1">
          <mxGeometry x="730" y="1228.76" width="40" height="40" as="geometry" />
        </mxCell>
        <mxCell id="55iJjRwArS4zSgEi5OsC-9" style="rounded=0;orthogonalLoop=1;jettySize=auto;html=1;fontSize=14;" edge="1" parent="55iJjRwArS4zSgEi5OsC-1" target="55iJjRwArS4zSgEi5OsC-10">
          <mxGeometry relative="1" as="geometry">
            <mxPoint x="820" y="1189" as="sourcePoint" />
          </mxGeometry>
        </mxCell>
        <mxCell id="55iJjRwArS4zSgEi5OsC-10" value="" style="ellipse;whiteSpace=wrap;html=1;aspect=fixed;fontSize=14;align=center;fillColor=none;" vertex="1" parent="55iJjRwArS4zSgEi5OsC-1">
          <mxGeometry x="800" y="1228.76" width="40" height="40" as="geometry" />
        </mxCell>
        <mxCell id="55iJjRwArS4zSgEi5OsC-11" value="" style="ellipse;whiteSpace=wrap;html=1;aspect=fixed;fontSize=14;align=center;fillColor=#fff2cc;strokeWidth=1;" vertex="1" parent="55iJjRwArS4zSgEi5OsC-1">
          <mxGeometry x="870" y="1228.76" width="40" height="40" as="geometry" />
        </mxCell>
        <mxCell id="55iJjRwArS4zSgEi5OsC-12" value="" style="endArrow=classic;html=1;fontFamily=Helvetica;fontSize=14;exitX=0.5;exitY=1;exitDx=0;exitDy=0;entryX=0.5;entryY=0;entryDx=0;entryDy=0;strokeWidth=1;" edge="1" parent="55iJjRwArS4zSgEi5OsC-1" target="55iJjRwArS4zSgEi5OsC-11">
          <mxGeometry width="50" height="50" relative="1" as="geometry">
            <mxPoint x="890" y="1189.76" as="sourcePoint" />
            <mxPoint x="840" y="1059.76" as="targetPoint" />
          </mxGeometry>
        </mxCell>
        <mxCell id="55iJjRwArS4zSgEi5OsC-13" value="" style="rounded=0;whiteSpace=wrap;html=1;strokeColor=#000000;fontFamily=Helvetica;fontSize=14;fillColor=none;" vertex="1" parent="55iJjRwArS4zSgEi5OsC-1">
          <mxGeometry x="720" y="739" width="560" height="80" as="geometry" />
        </mxCell>
        <mxCell id="55iJjRwArS4zSgEi5OsC-14" value="&lt;font&gt;Fight ending with character’s escape / Walka zakończona ucieczką uczestnika&lt;br style=&quot;font-size: 14px&quot;&gt;&lt;/font&gt;" style="rounded=0;whiteSpace=wrap;html=1;fontSize=14;fontFamily=Helvetica;" vertex="1" parent="55iJjRwArS4zSgEi5OsC-1">
          <mxGeometry x="1007" y="749" width="260" height="40" as="geometry" />
        </mxCell>
        <mxCell id="55iJjRwArS4zSgEi5OsC-15" value="&lt;font&gt;Fight ending with character’s death / Walka zakończona śmiercią uczestnika&lt;br style=&quot;font-size: 14px&quot;&gt;&lt;/font&gt;" style="rounded=0;whiteSpace=wrap;html=1;fontSize=14;fontFamily=Helvetica;" vertex="1" parent="55iJjRwArS4zSgEi5OsC-1">
          <mxGeometry x="730" y="749" width="260" height="40" as="geometry" />
        </mxCell>
        <mxCell id="55iJjRwArS4zSgEi5OsC-16" value="&lt;span style=&quot;font-family: &amp;#34;arial&amp;#34;&quot;&gt;(&lt;/span&gt;&lt;span style=&quot;font-family: &amp;#34;arial&amp;#34;&quot;&gt;&lt;b&gt;Main_hero&lt;/b&gt;,&amp;nbsp;&lt;/span&gt;&lt;span style=&quot;font-family: &amp;#34;arial&amp;#34;&quot;&gt;Wizard)&lt;/span&gt;" style="rounded=0;whiteSpace=wrap;html=1;sketch=0;fillColor=#d5e8d4;strokeColor=#82b366;align=center;fontSize=14;fontFamily=Helvetica;" vertex="1" parent="55iJjRwArS4zSgEi5OsC-1">
          <mxGeometry x="730" y="789" width="260" height="20" as="geometry" />
        </mxCell>
        <mxCell id="55iJjRwArS4zSgEi5OsC-17" style="rounded=0;orthogonalLoop=1;jettySize=auto;html=1;exitX=0.75;exitY=1;exitDx=0;exitDy=0;fontSize=14;" edge="1" parent="55iJjRwArS4zSgEi5OsC-1" source="55iJjRwArS4zSgEi5OsC-15" target="55iJjRwArS4zSgEi5OsC-16">
          <mxGeometry relative="1" as="geometry">
            <mxPoint x="1185" y="790" as="sourcePoint" />
            <mxPoint x="1208.6894328889757" y="823.5054229630896" as="targetPoint" />
          </mxGeometry>
        </mxCell>
        <mxCell id="55iJjRwArS4zSgEi5OsC-18" value="&lt;span style=&quot;font-family: &amp;#34;arial&amp;#34;&quot;&gt;(&lt;/span&gt;&lt;span style=&quot;font-family: &amp;#34;arial&amp;#34;&quot;&gt;&lt;b&gt;Main_hero&lt;/b&gt;,&amp;nbsp;&lt;/span&gt;&lt;span style=&quot;font-family: &amp;#34;arial&amp;#34;&quot;&gt;Wizard)&lt;/span&gt;" style="rounded=0;whiteSpace=wrap;html=1;sketch=0;fillColor=#d5e8d4;strokeColor=#82b366;align=center;fontSize=14;fontFamily=Helvetica;" vertex="1" parent="55iJjRwArS4zSgEi5OsC-1">
          <mxGeometry x="1007" y="789" width="260" height="20" as="geometry" />
        </mxCell>
        <mxCell id="55iJjRwArS4zSgEi5OsC-19" style="rounded=0;orthogonalLoop=1;jettySize=auto;html=1;fontSize=14;" edge="1" parent="55iJjRwArS4zSgEi5OsC-1" source="55iJjRwArS4zSgEi5OsC-14" target="55iJjRwArS4zSgEi5OsC-18">
          <mxGeometry relative="1" as="geometry">
            <mxPoint x="1426.666666666667" y="790" as="sourcePoint" />
            <mxPoint x="1463.9999999999172" y="817.9999999999372" as="targetPoint" />
          </mxGeometry>
        </mxCell>
        <mxCell id="55iJjRwArS4zSgEi5OsC-20" value="Produkcja szczegółowa" style="text;html=1;strokeColor=none;fillColor=none;align=left;verticalAlign=top;whiteSpace=wrap;rounded=0;fontSize=18;" vertex="1" parent="55iJjRwArS4zSgEi5OsC-1">
          <mxGeometry x="680" y="430" width="360" height="39" as="geometry" />
        </mxCell>
        <mxCell id="55iJjRwArS4zSgEi5OsC-21" value="Produkcja generyczna wykorzystana dla zestawu konkretnych elementów" style="text;html=1;strokeColor=none;fillColor=none;align=left;verticalAlign=top;whiteSpace=wrap;rounded=0;fontSize=18;" vertex="1" parent="55iJjRwArS4zSgEi5OsC-1">
          <mxGeometry x="680" y="549" width="640" height="40" as="geometry" />
        </mxCell>
        <mxCell id="55iJjRwArS4zSgEi5OsC-22" value="Produkcje alternatywne w danych okolicznościach (mają identyczne lewe strony)" style="text;html=1;strokeColor=none;fillColor=none;align=left;verticalAlign=top;whiteSpace=wrap;rounded=0;fontSize=18;" vertex="1" parent="55iJjRwArS4zSgEi5OsC-1">
          <mxGeometry x="680" y="699" width="680" height="50" as="geometry" />
        </mxCell>
        <mxCell id="55iJjRwArS4zSgEi5OsC-23" value="" style="endArrow=classic;html=1;fontSize=18;" edge="1" parent="55iJjRwArS4zSgEi5OsC-1">
          <mxGeometry width="50" height="50" relative="1" as="geometry">
            <mxPoint x="740" y="1049" as="sourcePoint" />
            <mxPoint x="740" y="1089" as="targetPoint" />
          </mxGeometry>
        </mxCell>
        <mxCell id="55iJjRwArS4zSgEi5OsC-24" value="Produkcje z innych misji mogące wpłynąć na decyzje gracza, np. zmienić jego stan posiadania" style="text;html=1;strokeColor=none;fillColor=none;align=left;verticalAlign=top;whiteSpace=wrap;rounded=0;fontSize=18;" vertex="1" parent="55iJjRwArS4zSgEi5OsC-1">
          <mxGeometry x="680" y="859" width="800" height="50" as="geometry" />
        </mxCell>
        <mxCell id="55iJjRwArS4zSgEi5OsC-25" value="Następstwo produkcji" style="text;html=1;strokeColor=none;fillColor=none;align=left;verticalAlign=top;whiteSpace=wrap;rounded=0;fontSize=18;" vertex="1" parent="55iJjRwArS4zSgEi5OsC-1">
          <mxGeometry x="680" y="999" width="800" height="50" as="geometry" />
        </mxCell>
        <mxCell id="55iJjRwArS4zSgEi5OsC-26" value="Zakończenie misji: śmiercią, porażką, sukcesem" style="text;html=1;strokeColor=none;fillColor=none;align=left;verticalAlign=top;whiteSpace=wrap;rounded=0;fontSize=18;" vertex="1" parent="55iJjRwArS4zSgEi5OsC-1">
          <mxGeometry x="680" y="1139" width="800" height="50" as="geometry" />
        </mxCell>
        <mxCell id="55iJjRwArS4zSgEi5OsC-27" value="Główny wątek misji" style="text;html=1;strokeColor=none;fillColor=none;align=left;verticalAlign=top;whiteSpace=wrap;rounded=0;fontSize=18;" vertex="1" parent="55iJjRwArS4zSgEi5OsC-1">
          <mxGeometry x="680" y="1319" width="800" height="50" as="geometry" />
        </mxCell>
      </root>
    </mxGraphModel>
  </diagram>
</mxfile>
